<?xml version="1.0" encoding="utf-8"?>
<!-- Generator: Adobe Illustrator 21.1.0, SVG Export Plug-In . SVG Version: 6.00 Build 0)  -->
<svg version="1.1" id="Capa_1" xmlns="http://www.w3.org/2000/svg" xmlns:xlink="http://www.w3.org/1999/xlink" x="0px" y="0px"
	 viewBox="0 0 595.3 841.9" style="enable-background:new 0 0 595.3 841.9;" xml:space="preserve">
<style type="text/css">
	.st0{fill:#DF6516;}
	.st1{fill:#C83C0E;}
	.st2{fill:#9C1A0E;}
	.st3{fill:#FEFDFD;}
	.st4{fill:#ECECEC;}
	.st5{fill:#DF660F;}
	.st6{fill:#E67A45;}
	.st7{fill:#FEF134;}
	.st8{fill:#FDCA02;}
	.st9{fill:#E1530C;}
	.st10{fill:#FB6916;}
	.st11{fill:#CF1D0A;}
	.st12{fill:#F93013;}
	.st13{fill:#FDF361;}
	.st14{fill:#48AAC6;}
	.st15{fill:#040406;}
	.st16{fill:#DF6415;}
	.st17{fill:#FFFFFF;}
</style>
<g>
	<path class="st16" d="M35.4,392.4c0.9-0.6,0.7-1.7,0.9-2.6c2.4-8.7,8.6-12.2,17.1-9.4c7.7,2.5,14.5,6.8,21.2,11.3
		c9.1,6.1,17.7,12.8,27.3,18c16.8,9.1,35,12.2,53.9,11.8c2.9-0.1,5.7-0.6,8.6-0.6c6.3-0.2,10.2-4.8,15-7.9c1.6-1.1,0.4-1.7-0.5-2.2
		c-5.5-3.4-10.9-7.1-15.8-11.2c-12.4-10.3-23.5-21.8-32-35.7c-3.5-5.8-6.6-11.8-8.8-18.2c-1.1,0-1.1,0.9-1.5,1.4
		c-0.8,0.8-1.6,1.4-2.8,0.9c-1.1-0.5-1.6-1.3-1.5-2.5c1.3-11.2,3.9-21.9,12.5-29.8c2.8-2.6,3.2-4.7,2.6-8.1
		c-3.7-23.9-4.1-47.8-0.1-71.7c3.8-23.1,11.4-44.8,23.2-65.1c13.4-22.9,30.8-41.9,52.6-56.8c15.3-10.4,32-17.8,50.2-21.2
		c0.7-0.1,1.3-0.1,2-0.1c-0.9,2.3-1.8,4.6-2.7,6.9c0.2-1.7-0.6-1.6-1.9-1.3c-7.1,1.5-13.9,3.7-20.5,6.5c-24,10.2-43.8,26-60.1,46
		c-13,16-22.8,33.9-29.8,53.4c-6.8,19.1-10.1,38.9-11,59c-0.8,16.6,1.1,33.1,3.6,49.5c0.3,1.8-0.2,2.8-1.7,3.8
		c-5.7,3.6-8.8,9.2-11.2,15.3c-0.2,0.5-0.4,1.1,0.2,1.5c1.8-0.5,3.5-1,5.3-1.3c0.9-0.2,2.1-0.5,2.7,0.3c0.7,1-0.6,1.6-1,2.4
		c-6.1,2.9-6.6,3.9-4.7,10.1c3.1,10.1,9,18.6,15.3,26.8c10,13,22.4,23.6,35.9,32.8c10.3,7,21.4,12.3,32.8,17.4
		c4.2,1.9,8.3,4,12.4,5.9c3.1,1.4,6.3,2.5,9.1,4.7c-0.8,0.7-1.4,0.3-2,0.1c-5.4-1.6-10.8-3.3-16.1-4.9l0,0c-0.6-0.8-1.5-0.6-2.2-0.7
		c-0.3-0.2-0.6-0.5-1-0.6c-7.9-3.5-16-6.3-23.6-10.4c-1.9-1-3.3-0.2-4.8,0.8c-7.8,5.1-14.3,11.5-20.3,18.5
		c-7.1,8.4-12.8,17.7-17.1,27.8c-1.4,3.2-2.4,6.6-3.8,10.5c5.8-2.9,11.2-4.9,17.1-4.5c-3,3-6.8,4.3-10.3,6.3c-1.3,0.7-2,1.4-2.3,3
		c-3.3,16.1-3.9,32.3-1.7,48.6c2.6,18.7,9.1,36,19.2,51.9c13.1,20.6,30.5,36.7,51.2,49.6c3.3,2.1,6.6,4.3,10.4,5.4
		c0.1,0.8,0.8,1,1.4,1.4c7.8,4.3,15.9,7.8,24.3,10.9c11.8,4.4,23.8,7.7,36.2,9.8c9.4,1.6,18.9,2.9,28.5,3.1
		c11.3,0.2,22.6,0.4,33.9-1.2c8.2-1.1,16.2-2.6,24.1-5.1c9.7-3.2,19.1-7,28.5-10.9c4.9-2,9.7-4.1,14.5-6.1c4.2-1.8,8.2-4.1,12.3-6.1
		c2.2-1,4.4-1.8,6.7-2.7c0,0.8-0.2,1.3-0.6,1.5c-19.6,12.2-39.8,23.1-62.3,30.2c0.8,0.4,1.3,0.7,1.8,0.9
		c13.7,5.1,26.2,12.4,38.1,20.7c7.9,5.5,16.4,9.4,26.4,8.8c4.6-0.3,8.6-1.9,12.9-3.2c7.7-2.4,14.1-6.5,19.9-11.8
		c0.7-0.4,1.3-0.8,1.2-1.8l0,0c1.1,0,1.7-0.6,1.8-1.8l0,0c0.4,0,0.6-0.2,0.6-0.6l0,0c1.9-1,2.8-2.8,3.9-4.4
		c8.4-12.7,12.1-27,15.1-41.6c2.2-11,3.6-22.1,4.5-33.3c0.4-5.1,0.9-10.1,0.7-15.2c-0.1-1.7-0.3-2.7-2.2-1.3c-1.3,1-2.8,1.7-4.2,2.5
		c-0.5,0.3-1.1,0.7-1.6,0.3c-0.7-0.6,0-1.3,0.3-1.8c2-3,4.1-5.8,6.5-8.4c10.4-11.7,18.7-24.6,23.9-39.5c2.3-6.6,4.1-13.4,5-20.3
		c1.6-11.2,1.3-22.5-0.5-33.8c-1.9-12.3-5.3-24.1-10.7-35.4c-3.8-8-9.2-10.9-17.8-8.8c-15,3.6-25.7,13.6-35.1,25.1
		c-0.8,1-0.5,1.7,0.3,2.5c7,7.9,12.5,17,17.7,26.1c0.1,1.7,0.9,3.1,1.5,4.6c3.9,9.2,6.4,18.6,6.6,28.6c0.3,10.4-1.1,20.4-5.5,30.1
		c-2.7,5.8-5.6,11.4-9.6,16.4c-6.7,8.4-14,16.2-22.3,23c-8.1,6.7-16.9,12.3-27,15.5c-4.9,1.5-10,2.6-14.8,0.1
		c-2.1-1-3.5-0.8-5.3,0.3c-10.2,6.1-20.9,10.4-33.1,9.2c-5.5-0.5-10-2.9-12-8.4c-0.8-2.1-1.4-1.7-2.7-0.9
		c-5.4,3.4-11.1,6.3-17.3,8.1c-7.4,2.2-15.6,1.1-19.8-6.9c0-0.2-0.1-0.4-0.1-0.6c0-1,0.3-2-0.4-2.9c0-2.3-0.2-4.6,0.3-6.9
		c1.8-8.7,5.8-16.4,10.9-23.6c8.9-12.5,19.8-22.9,31.9-32.2c2.8-2.1,3.3-4,2.3-7.2c-4.2-13.4-3.8-27-0.2-40.5
		c2.8-10.6,8.6-19.6,14.7-28.4c0.4-0.6,0.8-1.3,1.8-1.3c0.3,1.3-0.4,2.4-0.8,3.6c-2.9,8.1-7.3,15.6-9.9,23.9
		c-4.2,13.4-4.9,26.8-1.3,40.5c0.7,2.4,1.2,4.5,4.4,2.6c0.6-0.4,1.8-0.5,2.3,0.4c0.4,0.8-0.3,1.5-0.7,2c-1.6,2.1-3.4,3.8-5.5,5.4
		c-10.8,7.9-20.7,16.7-29.3,27c-6.1,7.2-11.4,15-14.3,24.1c-1.3,4.1-2.5,8.3-0.6,12.5c0.6,2.2,2.2,3.3,4.2,4c3.7,1.4,7.4,0.5,11-0.7
		c11.1-3.8,20.6-10.4,29.3-18.1c8.8-7.8,17.2-16,26-24c1.6-1.4,3-3.3,5.2-3.9c0,0.9-0.6,1.6-1.1,2.3c-6.5,8.3-13.8,15.9-21.1,23.4
		c-3.7,3.8-7.8,7.3-11.7,10.9c-3.3,3.1-3.1,6.8,0.4,8.6c1.8,2.3,4.4,2.5,6.9,2.6c5.8,0.3,11.3-0.9,16.6-3.1
		c6.9-2.9,13.6-6,19.6-10.6c8.6-6.6,16.7-13.8,24.9-20.8c1.5-1.3,3-2.6,5.5-3.4c-0.5,1.1-0.7,1.7-1.1,2.2
		c-7.1,7.9-14.1,15.9-22.3,22.7c-1.4,1.1-4.2,2.7-3.6,3.7c1,1.6,3.6,0.7,5.6,0.5c9.8-1.4,18-6.3,25.7-12
		c7.9-5.8,14.8-12.8,21.2-20.1c5.1-5.8,9.8-12.1,13-19.2c4.9-11.1,6.7-22.6,5.3-34.7c-1.6-14.1-7.2-26.7-14.5-38.6
		c-4.4-7.2-10-13.8-16-19.9c-10.9-11-22.6-20.9-35.5-29.3c-0.7-0.4-1.2-0.8-2.1-0.4c-7.6,3.3-15.7,5.2-23.8,6.9
		c-7.6,1.6-15.2,3-22.8,4.3c-6.8,1.2-13.6,2.1-20.4,3c-6.7,0.9-13.4,2.1-20.2,2.6c-8.1,0.7-16.2,1.5-24.3,2.3c-1,0.1-2,0.3-3.4-0.5
		c4.4-1.7,8.8-2,12.9-2.6c9.4-1.2,18.7-2.8,28.1-4.2c13-2,26-4.3,38.9-7c9.9-2.1,19.8-4.2,29.3-7.8c10.1-3.9,19.5-9.3,28.3-15.7
		c7.1-5.1,13.8-10.7,18.7-18c2.9-4.3,2.9-4.4,0-8.5c-0.4-0.5-1-1-0.6-1.8c0.4-0.7,1.1-0.7,1.8-0.7c1,0.1,2,0.5,3.1,0.6
		c1.8,0.2,3,1.9,5,2.1c-0.3-2.3-0.9-4.3-1.8-6.2c-2.6-5.9-6.7-10.4-12-14c-3.3-2.3-3.4-2.7-1.5-6.3c2.2-4.3,4.6-8.5,6.8-12.9
		c7.3-14,13-28.6,16.9-43.9c2.3-8.9,4.3-17.8,4.8-27c0.5-8.7,0.4-17.4,0.2-26.1c-0.1-5-1-9.9-1.9-14.8c-1.9-11.4-5.4-22.3-10.1-32.8
		c-5.2-11.5-11.2-22.5-18.9-32.7c-6.8-8.9-14-17.4-22.2-25c-9.4-8.7-18.9-17.4-30.5-23.4c-2.6-1.3-5.2-3.7-7.9-5.2
		c-8.3-4.5-16.6-9.3-26.7-8.1c3-1.1,6.1-0.4,9.1-0.5c1.6-0.1,3.2,0,3.9-1.8c0.5-1.1,1.1-0.9,2.1-0.6c6.1,2.4,11.9,5.3,17.5,8.7
		c8.4,5.1,16.6,10.6,24.1,17c6.2,5.2,12.3,10.7,18,16.4c0.6,0.6,0.6,2.2,2.1,1.8c3.9,4.8,8,9.5,11.8,14.4c15.9,20.2,26.8,42.8,32,68
		c4.5,21.9,3.9,43.7-0.8,65.4c-4.8,21.9-13.2,42.4-24.2,61.8c-1.5,2.6-1.2,3.8,1.1,5.7c8.5,7.3,13.9,16.2,13.5,27.9
		c0,0.2,0,0.4,0,0.6c-0.3,1.9,0.3,4.5-2.3,5c-2.4,0.5-2.7-2-3.5-3.5c-0.5-0.8-0.9-1.7-1.8-1.9c-9.7,17-25.7,26.6-42.2,35.8
		c4.9,3.7,9.6,7.1,14.1,10.7c7.4,5.8,14.5,11.9,20.8,18.9c1.7,1.9,2.5,1.1,3.7-0.4c7.2-8.7,15.6-16.1,25.8-21.3
		c6.6-3.4,13.6-5.5,21.1-3.7c7,1.7,10.8,6.9,13.5,13.1c8,18.3,12.1,37.3,11.7,57.3c-0.2,11.7-2.4,23.1-6.2,34.1
		c-4.8,14-12.2,26.5-21.9,37.7c-0.9,1-1.2,2-1.1,3.4c1.1,11.2-0.1,22.2-1.4,33.3c-1.2,10.2-2.6,20.4-5.1,30.3
		c-4.2,16.2-9.1,32.2-21.9,44.2c-1.7,1.6-3.5,3-5.2,4.5c-0.8,0-1.1,0.8-1.6,1.1c-2.1,1-2.2,2.2-0.9,4.1c2.5,3.8,4.7,7.9,7.1,11.8
		c5.4,8.8,11.2,17.3,18.1,25c1.4,1.5,2.1,1.2,3.1,0c0.6-0.6,1.3-1.1,1.4-2.1c0.9,0.9,1.9,1.8,2.8,2.7c-3.9,1.9-4.1,2.8-0.9,5.2
		c1.3,1,2.6,1.9,4,2.8c1.3,0.8,3.1,2.1,4,1.3c1-0.9,0.7-3-0.1-4.5c6.7,2.8,13.3,5.7,20.7,6.3c0.5,1.7-1.2,2.7-1.3,4.4
		c2.2,0.3,4.6,0.6,5.9-1.4c2.5-3.7,6-4,9.9-3.7c3,0.2,4.8-1.6,6.2-3.8c1.1-1.7,0.8-2.7-1.5-2.5c2.4-0.8,4.9-1.5,7.5-0.7
		c-3-0.4-2.5,2.1-2.6,3.7c-0.2,1.8,1.5,0.8,2.4,1c1.3,0.3,2.7,0.5,3.7,1.5c6.3,5.7,10.9,12.3,10.3,21.3c-0.1,1.9-1.3,3.2-3.3,3.9
		c-3.4,1.2-7,1-10.5,1.1c-1.5,0-2.4-0.8-2.8-2c-0.6-1.7-1.7-3-2.8-4.3c-4-4.9-12.8-8.7-18-1.4c-0.4,0.5-1.3,0.9-0.8,1.6
		c0.4,0.6,1.2,0.4,1.9,0.3c0.8-0.1,1.5-0.3,2.2-0.5c3.2-0.8,6.3-1,9,1.2c4,3.4,6.1,7.9,7.1,12.8c0.8,4,0,7.7-3,10.9
		c-1.1,1.2-3.1,0.3-3.5,1.5c-0.6,2.2-2.4,2-3.8,2.3c-2.6,0.6-5.2,1.3-7.9,1.6c-6.7,0.7-13.2-0.2-19.4-2.7
		c-7.1-2.8-12.7-7.9-18.6-12.6c-5.1-4.1-10.2-8.2-16.8-9.9c-7.2-1.9-14.4-1-21.7-0.2c-5.9,0.6-11.3,0.5-13.3-5.2
		c-1.1-3,0.2-5.4,1.2-7.9c1.6-4.1,6.8-7.6,11-7.4c3.7,0.2,7.3,1.6,11.1,1.3c4.7-0.4,9-4.7,7.9-9.4c-1.5-6.5-4-12.7-8.5-18.1
		c-3.8-4.6-7.8-9.1-11.6-13.7c-4.3-5.2-6.9-6.4-12.2-4.5c-2-0.6-4-0.1-6-0.2c-9.5-0.3-17.6-4.4-25.1-9.7c-10.1-7-20.7-13-31.8-18.3
		c-8.5-4-17.2-5.6-26.8-3.8c-13,2.3-26.2,2.1-39.3,1.4c-2.5-0.1-4.1,0.5-5.8,2.5c-8.1,10-19,15.5-31.4,18.2c-2.5,0.5-5,1.2-7.7,1.2
		c-1,0-1.9,0-2.9,0c-1.3-0.1-1.9,0.5-1.9,1.9c0.2,3.5-0.4,6.9-0.5,10.3c-0.2,8.8-0.3,17.7,0,26.5c0.2,5.1,0.1,10.3,2.5,15.1
		c0.8,1.5,1.7,2.8,3.3,3.4c6.1,2,12.4,1.9,18.2-0.1c2.7-0.9,4.2-1.1,6.7,0.2c2.5,1.3,3.9,3.2,5.2,5.4c1.3,2.2,2.8,4,1.7,7.1
		c-1.2,3.3-2.6,5.8-5.9,7.2c-1.1,0.5-2.3-0.8-3.3,0.8c-0.9,1.3-3.5,1.9-3.1,3.6c0.3,1.3,2.8,0.1,4.2,0.6c-3.1,1-6.2,0.3-9.3-0.2
		c0.5-2,3.2-2.7,2.8-5.1c0.1,0,0.1,0,0.2-0.1c0,0,0-0.1,0-0.1c-0.1,0.1-0.2,0.2-0.2,0.2c-0.4,0.2-0.9,0.3-1.3,0.5
		c-3.2,2.3-6.7,1-7.7-2.9c-0.6,0.6,0.2,2.8-1.5,2.1c-2.4-0.9-2,1.1-2.8,2l-0.1-0.1c-0.1-1.3,0-3-2.1-2.6c-2.9,0.6-5.7,0.1-8.6,0.3
		c-1.7,0.1-3.8-0.4-5.1,0.4c-3,1.8-6.4,2-9.6,3.1c-7.7,2.7-15.7,4.6-23.7,6.7c-6.8,1.7-13.4,4-20.5,3.7c-6.2-0.2-8.7-2.6-10.1-8.5
		c-0.8-3.5,0.3-6.5,1.1-9.7c2.3-10.1,8.4-13.9,18.5-12c4.2,0.8,8.5,1.8,12.8,1.3c6.3-0.7,11.3-3.2,14.6-9.1c4.7-8.6,5.8-18,6.1-27.4
		c0.3-7.3,0.5-14.6-0.4-21.8c-0.6-4.6-0.4-4.7-5.1-5.6c-4.6-2.4-9.4-4.3-13.6-7.5c-10.2-7.6-16.2-17.9-19.4-30.1
		c-1.4-5.2-2.1-10.5-2.3-15.9c-0.1-1.7-0.7-2.6-1.9-3.5c-9.6-6.8-18.3-14.5-26.3-23.1c-5.9-6.4-11.2-13.2-15.9-20.6
		c-1-1.5-2.1-2.2-3.9-2.6c-15.5-3.3-30.3-8.4-44-16.3c-12.9-7.4-24-16.8-30.7-30.5c-2.7-5.3-4.3-10.9-2.6-16.9c0.5-1.9-1-2.3-2-3
		c-8.3-5.7-15.8-12.4-21.8-20.6c-8.3-11.3-13.7-23.7-12.5-38.2c0.4-5.1,1.8-9.8,6.1-13.1c1.2-0.9,0.7-1.5,0.1-2.3
		c-3.7-5.6-6.9-11.5-9-17.9c-1.1-3.2-1.9-6.4-2.8-9.7c-0.3-1-0.3-2-1.3-2.7C35.4,402.8,35.4,397.6,35.4,392.4z M93.1,516.3
		c0.8,1.1,2.1,1.4,3.3,1.8c0.3,1.5,1.5,1.1,2.5,1.1c1.3,1.2,2.8,2,4.6,2.2c0.8,1.3,2.1,1.4,3.5,1.4c1.8,1.8,4.4,2.3,6.5,3.5
		c2.3,1.3,5,2.1,7.5,4.3c-2.8,0.3-4.8-1-7-1.1c-3.6-1.5-7.2-3.1-10.8-4.3c-6.2-2-12.3-4-17.9-7.4c-1.8-1.1-2.4-0.8-2.5,1.4
		c-0.2,5.1,2,9.5,4.3,13.8c1.9,3.6,4,7.2,7.7,9.4c0.2,0.2,0.4,0.3,0.6,0.5l0,0.1c-0.1,0.9,0.5,1.4,1,1.9
		c6.1,6.4,13.3,11.2,20.9,15.5c10.6,6,22.2,9.6,33.9,12.8c0.9,0.3,2.1,0.6,2.7-0.1c0.7-0.7-0.3-1.6-0.6-2.3
		c-5.2-10.7-9.6-21.7-12-33.4c-2.8-13.5-4.1-27.1-2.6-40.8c0.3-3,0.4-6.1,0.7-9.8c-1.3,1.9-2.5,3.1-4.1,2.2c-1.3-0.7-1.2-2.3-1-3.6
		c2.2-16,8.3-30.5,17.4-43.8c3.1-4.4,6.4-8.6,9.6-12.8c0.8-0.9,1.7-1.7,2.6-2.7c-2.4-0.6-4.5,0.3-6.7,0.3
		c-11.7,0.2-23.3-0.9-34.7-3.8c-7.5-1.9-14.7-4.3-21.5-7.9c-10.2-5.5-19.4-12.6-29.1-19c-6.1-4-12.1-8.2-19.1-10.4
		c-7.1-2.3-10.9,0-12,7.4c-1.5,9.6,0.6,18.6,4.1,27.5c1.1,4.1,3.2,7.7,5.3,11.4c3.8,6.6,8.1,12.7,14.3,17.3c9.3,7,19.6,12.3,30,17.3
		c3.2,1.5,6.3,3.4,9.8,4.5c2.4,0.7,4.7,2,7.1,3c1.4,0.6,1.8,1.1,1.4,2.1c-5.2-0.7-10.1-2.3-14.9-4c-15.9-5.6-30.3-13.7-42.7-25.2
		c-3-2.8-4.7-2.5-6.3,1.5c-3.1,7.9-2.1,15.8,0.6,23.6c1.7,5.9,4.7,11.2,8.2,16.2c6.5,9.3,14.9,16.6,24.2,22.8c2.5,1.6,4.7,4,7.9,4.3
		C90.5,515.7,91.6,516.5,93.1,516.3z M256.8,680.7c7.5,0.6,14.9-0.3,22.1-2.6c8.5-2.7,16.1-7.1,22.2-13.7c0.4-0.4,1-0.8,0.8-1.4
		c-0.2-0.6-0.9-0.6-1.5-0.6c-9.2-0.7-18.1-2.4-27.1-4.5c-8.7-2-17.1-4.6-25.5-7.7c-7.2-2.7-14-6.1-21.1-9.1
		c-5.8-3.4-11.6-6.9-17.9-10.6c0.2,6.2,1.3,11.7,3,17.1C218,666.7,235.3,680.3,256.8,680.7z M498.1,741.2
		c5.8,5.8,12.6,9.9,20.4,12.4c0.9,0.3,1.5-0.2,1.2-0.9c-0.3-1.1,1.5-2.8-0.3-3.2C511.8,748,505.3,743.9,498.1,741.2z"/>
	<path class="st1" d="M438,140.4c-1.5,0.4-1.5-1.1-2.1-1.8c-5.7-5.8-11.8-11.2-18-16.4c-7.6-6.4-15.7-11.9-24.1-17
		c-5.6-3.3-11.4-6.3-17.5-8.7c-0.9-0.4-1.6-0.6-2.1,0.6c-0.8,1.7-2.3,1.7-3.9,1.8c-3,0.1-6.1-0.6-9.1,0.5
		c-15.1,1.8-28.7,7.2-40.9,16.3c-3.5,1.5-6.2,4.1-9,6.6c-3.3,2.9-7.1,5.5-9.4,9.5c-1.4,0.6-2.2,1.8-3.2,2.9
		c-10.4,11.4-19.1,23.9-26.9,37.1c-1.3,2.2-2.7,3-5.1,2c-0.1-0.3-0.2-0.8-0.4-1c-8.1-10.4-12-22.3-13.1-35.3
		c-1.1-12.9-0.1-25.6,3.7-38c0.9-2.3,1.8-4.6,2.7-6.9c1.1-1.4,2.1-3,3.4-4.3c5-5.3,11.2-6,17.4-2c0.9,0.6,1.5,1.5,2.9,1.6
		c0.8-5.9,1.8-11.7,3.5-17.3c2.4-7.6,5.4-14.9,10.1-21.5c3-4.3,6.8-7.8,11.8-9.6c1.9,0,3.8,0,5.8,0c8.3,3.4,12.4,10.7,16.2,18.2
		c0.4,0.7,0.1,1.9,1.2,2c1.3,0.1,1.6-1.2,2.1-2c2-3.4,4.3-6.5,7.4-8.9c6.7-5,14.6-4.8,22.1,0.7c9,6.6,14.7,15.7,20.1,25.2
		c0.3,0.6,0.6,1.2,1,1.8c0.2,0.3,0.4,0.6,0.7,1.1c1-1.3,1.8-2.5,2.7-3.6c4.7-5.8,11.8-6.9,17.9-2.8c6.1,4.1,9.9,10,13.3,16.3
		c7.1,13.1,11.7,27.2,15.7,41.5C436.1,132.8,437.5,136.5,438,140.4z M301.2,70.8c-3.6,3.5-7.1,7.1-10.7,10.6
		c-0.8,0.8-1.7,1.6-1.9,2.8c-0.1,0.7-0.4,1.7,0.3,2.2c0.8,0.6,1.3-0.4,1.8-0.9c3.3-3.1,6.7-6.1,9.6-9.5c2.2-2.5,4.6-2.5,6.9-1.1
		c2.6,1.6,5.1,1.8,7.9,0.7c2.1-0.8,4.1-0.5,5.8,1.2c4.6,4.6,9.2,9.2,13.8,13.7c1.4,1.4,2.7,3.1,1.4,4.8c-1.5,1.9-2.2,5-5.9,4.4
		c-3.3-0.5-6.5-0.5-9.1,2.2c-3.8,3.9-7.7,7.8-11.6,11.6c-1,0.9-1.4,2.1-1.7,3.3c-0.1,0.4-0.1,1.1,0.2,1.3c0.5,0.6,1.1,0.1,1.5-0.3
		c1.3-1.3,3.1-2.1,4.5-3.4c4.7-4.3,10.3-7.4,15.9-10.3c3.1-1.6,6.3-3.2,8.3-6.2c2-2.9,1.8-6.1-0.7-8.6c-5-5.1-10-10.1-15-15.1
		c-2.1-2.1-4.5-2.9-7.3-1.8c-2.5,0.9-4.6,1.1-7-0.4c-1.6-1-3.7-1.5-5.7-1.2c0.6-1.2,1.4-2.3,1.8-3.5c1.3-3.6,2.5-7.2,2.4-11.1
		c0-0.6,0.1-1.4-0.7-1.7c-0.6-0.2-0.9,0.3-1.1,0.7C302.2,60,299.8,65,301.2,70.8z M315.6,98.1c0.3-8.1-5.1-10.9-10.9-11.3
		c-5-0.3-10.5,5.9-10.4,11.4c0,4.7,6.1,10.7,11,10.3C310.8,108.1,316,104.3,315.6,98.1z M284.1,104.3c0.1-2.1-0.6-4-1.5-5.8
		c-0.6-1.1-1.2-2.2-0.9-3.5c0.3-1.2-0.3-2.1-1.2-2.1c-1.1-0.1-1.5,0.9-1.7,2c-0.2,1.6,0,3.1,0.8,4.5c1.6,2.8,1.8,5.5,0.6,8.5
		c-0.9,2.3-0.2,4.5,1.8,6.4c2.4,2.3,4.8,4.7,7,7.1c2.3,2.4,4.8,4.6,7.3,6.9c0.6,0.6,1.3,0.9,2,0.2c0.8-0.7,0.2-1.4-0.1-2
		c-0.2-0.4-0.6-0.8-0.9-1.1c-3.8-3.8-7.6-7.8-11.6-11.5c-2.1-1.9-2.8-4-2.1-6.7C283.8,106.2,283.9,105.3,284.1,104.3z M264.8,111.2
		c0,0.7,0,0.9,0,1.2c0.1,0.9-0.4,2.2,0.8,2.5c1,0.2,1.5-1.1,1.9-1.9c1.7-4,2.7-8.1,2.7-12.5c0-0.7,0.1-1.7-0.8-1.9
		c-0.9-0.2-1.2,0.8-1.6,1.4C265.9,103.7,265.2,107.6,264.8,111.2z M348.9,57.1c-0.2-0.7,0.2-1.9-0.8-2.6c-0.5-0.4-1,0-1.4,0.5
		c-2,2.9-2.8,6.2-2.6,9.7c0,0.5,0.2,1.2,0.8,1.3c0.8,0.2,1.1-0.5,1.5-1.1C347.7,62.6,348.5,60.1,348.9,57.1z M399.1,78.9
		c-0.3-0.5,0-1.5-0.9-1.8c-0.7-0.2-1.3,0.3-1.7,0.8c-1.4,1.7-2.1,3.6-1.8,5.8c0.1,0.6,0.7,1.1,1.3,0.8c2-1,2.5-3,3-4.9
		C399,79.4,399,79.3,399.1,78.9z"/>
	<path class="st1" d="M440.7,694c5.3-1.9,7.9-0.8,12.2,4.5c3.8,4.6,7.8,9.1,11.6,13.7c4.4,5.4,6.9,11.5,8.5,18.1
		c1.1,4.6-3.1,9-7.9,9.4c-3.8,0.3-7.4-1.1-11.1-1.3c-4.1-0.2-9.4,3.3-11,7.4c-1,2.6-2.3,4.9-1.2,7.9c2,5.7,7.4,5.9,13.3,5.2
		c7.2-0.8,14.4-1.7,21.7,0.2c6.6,1.7,11.7,5.9,16.8,9.9c5.9,4.7,11.5,9.8,18.6,12.6c6.2,2.4,12.7,3.4,19.4,2.7
		c2.6-0.3,5.3-0.9,7.9-1.6c1.4-0.4,3.2-0.2,3.8-2.3c0.3-1.2,2.3-0.3,3.5-1.5c3-3.2,3.8-7,3-10.9c-1-4.9-3.2-9.4-7.1-12.8
		c-2.7-2.3-5.8-2.1-9-1.2c-0.7,0.2-1.5,0.4-2.2,0.5c-0.6,0.1-1.5,0.3-1.9-0.3c-0.5-0.8,0.4-1.1,0.8-1.6c5.3-7.3,14-3.4,18,1.4
		c1.1,1.3,2.2,2.6,2.8,4.3c0.4,1.2,1.3,2,2.8,2c3.5,0,7.1,0.2,10.5-1.1c2-0.7,3.1-2,3.3-3.9c0.6-9-3.9-15.6-10.3-21.3
		c-1-0.9-2.4-1.1-3.7-1.5c-0.8-0.2-2.5,0.8-2.4-1c0.1-1.5-0.4-4,2.6-3.7c5.6,0.5,9,4.1,12.1,8.3c3.1,4.2,5,8.9,6.8,13.7
		c0,2.1,0,4.2,0,6.3c-1.3,2.9-2.8,5.6-5.8,7.1c-3.4,1.7-7,1.8-10.7,1.7c-1.8,0-2.4,0.2-2.1,2.4c1.6,9.6-2.6,16.4-11.9,19.5
		c-2.5,0.9-5.1,1.5-7.6,2.2c-5,0-10,0-15,0c-2.7-1.4-5.8-1.3-8.6-2.5c-7.9-3.3-14.3-8.6-20.7-13.9c-5.7-4.8-11.8-8.9-19.5-9.8
		c-4.4-0.6-8.8,0.1-13.2,0.6c-3.7,0.4-7.5,0.8-11.2,0c-7.2-1.5-11-7-9.8-14.2c1.6-9.5,9.4-18.2,22.1-15.2c1.3,0.3,2.6,0.6,4,0.8
		c4.1,0.5,6-1.7,5-5.7c-1.1-4.4-3.5-8.3-6-12.1C456.1,708.3,449.1,700.5,440.7,694z"/>
	<path class="st1" d="M496.7,721.8c-0.1,1-0.8,1.5-1.4,2.1c-1.1,1.2-1.8,1.5-3.1,0c-6.9-7.7-12.7-16.2-18.1-25
		c-2.4-3.9-4.6-8-7.1-11.8c-1.3-2-1.2-3.1,0.9-4.1c0.6-0.3,0.9-1.1,1.6-1.1C477.7,695.8,485.8,709.8,496.7,721.8z"/>
	<path class="st1" d="M546.5,728.6c2.2-0.2,2.6,0.8,1.5,2.5c-1.5,2.2-3.2,4.1-6.2,3.8c-3.9-0.3-7.4,0-9.9,3.7
		c-1.3,2-3.7,1.6-5.9,1.4c0.1-1.7,1.8-2.7,1.3-4.4c4.2-0.6,8.1-1.8,11.8-4.1C541.3,730.1,543.7,728.9,546.5,728.6z"/>
	<path class="st1" d="M506.6,729.3c0.7,1.5,1.1,3.6,0.1,4.5c-0.9,0.8-2.7-0.5-4-1.3c-1.4-0.8-2.7-1.8-4-2.8
		c-3.2-2.4-3.1-3.3,0.9-5.2C501.9,726.1,504.2,727.7,506.6,729.3z"/>
	<path class="st1" d="M239.1,682.4c4.7,0.9,4.5,1,5.1,5.6c0.9,7.3,0.7,14.6,0.4,21.8c-0.3,9.5-1.4,18.8-6.1,27.4
		c-3.2,5.9-8.3,8.4-14.6,9.1c-4.3,0.5-8.6-0.6-12.8-1.3c-10.1-1.9-16.2,1.9-18.5,12c-0.7,3.2-1.9,6.2-1.1,9.7
		c1.4,5.9,3.9,8.2,10.1,8.5c7.1,0.3,13.7-2,20.5-3.7c8-2,16-3.9,23.7-6.7c3.2-1.1,6.6-1.3,9.6-3.1c1.3-0.8,3.4-0.3,5.1-0.4
		c2.9-0.2,5.7,0.3,8.6-0.3c2-0.4,1.9,1.3,2.1,2.6c-0.4,0.3-0.6,0.7-0.4,1.2c0,0.1,0.1,0.1,0.2,0.2c0.1-0.4,0.2-0.8,0.3-1.2
		c0.7-0.9,0.3-3,2.8-2c1.6,0.6,0.8-1.5,1.5-2.1c1,3.9,4.4,5.2,7.7,2.9c0.4-0.3,0.9-0.4,1.3-0.5c0,0,0,0,0,0c0.4,2.5-2.4,3.1-2.8,5.1
		c-3.9,0.5-7.6-0.5-11.4-0.9c-7.3-0.7-14.2,0.6-21.2,2.8c-13.8,4.4-27.7,8.6-42,10.9c-7.2,1.2-14.1,0.1-18.6-6.7
		c-0.8-1.2-1.7-0.6-2.5-0.5c-6.7,0.3-12.3-1.6-16-7.5c-1.2-1.9-1.7-4-1.6-6c0.5-7.8,2.6-15.1,7.7-21.3c4.2-5.1,9.7-6.9,16.2-6.2
		c7.5,0.9,14.4,3.9,21.5,6.1c2.8,0.9,5.6,1.8,8.6,2.2c7.4,1,10.3-0.6,13.7-8.7c4.3-10.3,4.2-21.4,4-32.3
		C239.8,693.5,239.4,688,239.1,682.4z M203.7,739.9c-5.3-2.3-10.3-3.4-15.5-3.3c-2.6,0-4.8,0.9-6.8,2.7c-5.6,5-7.6,11.5-8.1,18.6
		c-0.1,1.7-0.2,3.9,1,5.5c2.7,3.5,6.4,4.7,10.6,4.3c1.2-0.1,1.5-0.8,1.4-1.7c-0.3-3.2,0.5-6.3,1.3-9.3
		C189.8,748.4,193.6,741.5,203.7,739.9z"/>
	<path class="st1" d="M290.9,767.4c-1.4-0.5-3.9,0.6-4.2-0.6c-0.4-1.7,2.2-2.3,3.1-3.6c1-1.5,2.2-0.3,3.3-0.8
		c3.3-1.4,4.7-3.9,5.9-7.2c1.1-3.1-0.3-4.9-1.7-7.1c-1.3-2.2-2.7-4.1-5.2-5.4c-2.5-1.3-3.9-1.1-6.7-0.2c-5.8,2-12.1,2.1-18.2,0.1
		c-1.6-0.5-2.5-1.8-3.3-3.4c-2.4-4.8-2.3-10.1-2.5-15.1c-0.4-8.8-0.2-17.7,0-26.5c0.1-3.4,0.7-6.9,0.5-10.3
		c-0.1-1.4,0.5-1.9,1.9-1.9c1,0.1,1.9,0,2.9,0c-0.4,14.7-1.4,29.3-0.1,44c0.1,1.1,0.3,2.3,0.5,3.4c0.8,5.1,1.6,5.9,6.8,6.1
		c3.9,0.2,7.8-0.2,11.7-1c4.8-0.9,9.3-0.8,12.9,3.2c-1.5,3.3,0.3,6.9,4.3,8.8c1.2,6.8,0.4,12.8-6.4,16.6
		C294.6,767.5,292.7,767,290.9,767.4z"/>
	<path class="st1" d="M302.9,749.9c-4-1.9-5.8-5.4-4.3-8.8C300.9,743.6,302.5,746.4,302.9,749.9z"/>
	<path class="st7" d="M256.9,99.5c-3.9,12.4-4.8,25.1-3.7,38c1.1,13,4.9,24.9,13.1,35.3c0.2,0.3,0.3,0.7,0.4,1
		c-0.5,2.5,1.3,4.2,2.3,6.1c1.6,3,3.9,3.1,6.1,0.5c3.8-4.5,7.4-9.2,11.3-13.7c5.2-6.1,11.2-11.6,17.8-16.1
		c5.4-3.7,10.7-7.6,16.9-10.1c4-1.7,7.7-4,11.8-5.6c11.6-4.3,23.5-6.5,36-4.9c10.8,1.3,20.4,5.7,29.1,11.9
		c6.3,4.5,12.1,9.6,17.1,15.7c5.9,7.2,14.9,21,18.5,30.4c3.2,8.3,6.2,16.5,8.3,25.2c2.2,9.1,3.3,18.2,4,27.4
		c0.6,9.2,0.1,18.5-0.8,27.8c-1.3,13-3.8,25.7-7.4,38.2c-3.5,12.2-8,24.2-13.6,35.7c-0.8,1.7-0.8,2.8,0.2,4.4
		c2.5,4.1,4.1,8.4,5.3,13.2c1.9,7.9-4.1,17.6-10.4,21.3c-3.5,2-7,3.8-10.6,5.6c-9,4.6-18.6,7-28.3,8.9c-10.1,2.1-20.4,3.1-30.8,2.5
		c-7.8-0.4-15.4-1.4-22.4-5.3c-4.6-2.6-8-6.2-7.9-11.9c5.4-1.6,4.9-7.7,1.2-10.4c-3.4-2.5-7.4-3.7-11.7-3.1c-7.1,1-14,3.4-21.2,4
		c-5.9,0.5-11.7,1.5-16.7-2.8c-3.3-2.8-6.2-6-9-9.2c-3-3.6-5.9-7.3-9.2-10.6c-5.6-5.5-10.1-5.7-16.3-1c-3.7,2.8-7.2,6.1-11,8.9
		c-6.4,4.7-9.4,4.6-15.2-0.7c-3.9-3.5-8-4.8-12.9-2.6c-2.3,1-3.9,2.5-3,5.4c-0.1,0.5-0.2,0.9-0.2,1.4c-0.6,5.3-2.9,9.5-8.3,11.3
		c-5.5,1.8-11.1,1.7-16.7,0.5c-12.4-2.7-22.9-8.7-31.3-18.1c-4.6-5.2-7.3-11-5.7-18.1c0.1-0.5-0.2-0.7-0.5-0.9
		c0.4-0.8,1.7-1.4,1-2.4c-0.6-0.9-1.8-0.5-2.7-0.3c-1.8,0.3-3.5,0.9-5.3,1.3c-0.6-0.4-0.4-1.1-0.2-1.5c2.4-6.1,5.5-11.6,11.2-15.3
		c1.5-1,2-2,1.7-3.8c-2.5-16.4-4.4-32.9-3.6-49.5c1-20.2,4.2-39.9,11-59c6.9-19.5,16.7-37.4,29.8-53.4c16.4-20.1,36.2-35.8,60.1-46
		c6.6-2.8,13.5-5,20.5-6.5C256.3,97.9,257.1,97.8,256.9,99.5z M388.8,265.6L388.8,265.6c-0.2-0.7-0.6-1.1-1.2-1.2
		c-0.1,0-0.3,0-0.4-0.1c-0.1-1.7-1.1-2.6-2.4-3.6c-3.7-2.9-7.3-6-10.9-9.1c0-0.2-0.1-0.4-0.1-0.6c0.4-1,1.4-1.2,2.2-1.7
		c0.4-0.3,0.7-0.6,0.6-1.2c-0.2-0.6-0.6-1.1-1.2-1c-5.8,0.2-11.4-2.1-17.3-1.3c-0.8,0.1-1.9,0.4-2.4-0.4c-0.7-1.1,0.6-1.7,1-2.5
		c0.3-0.5,1.2-0.8,0.6-1.7c-0.5-0.6-1.2-0.6-1.8-0.6c-2,0.1-4.1,0.5-6,0.1c-4.5-1-5.3-0.9-7.7,2.8l-0.1,0c-0.2,0.2-0.4,0.4-0.6,0.5
		c-3.9,4.2-7.1,8.9-8.4,14.8c2-1.5,3.4-4.1,6.5-2.4c0.2,0.1,1-0.7,1.5-1.2c0.5-0.5,0.7-1.5,1.6-1.3c0,1.4,0,2.8,0,4.2
		c0,0.9,0.1,1.8,1,2.3c1,0.5,1.6-0.5,2.1-1.1c4.5-5.4,10.6-6.7,17.7-7.2c-2.2,2.5-4.2,4.5-4.4,7.6c0,0.8-0.2,1.6,0.4,2.1
		c0.8,0.7,1.5-0.2,2-0.6c2.2-2.1,4.6-1.7,7.2-1c6,1.8,11.8,4,17.5,6.5c1.7,0.7,3.4,1.4,5.6,1.7c-0.6-0.9-1-1.4-1.4-2
		C389.8,266.1,389.4,265.8,388.8,265.6z M167.9,232.1l0.2,0.1c0.2,1.6-0.9,2.4-2,3.1c-0.9,0.6-1.6,1.3-1.4,2.5
		c-1.2,0.7-2.4,1.5-2.7,3c0.3,0.1,0.5,0.2,0.7,0.1c1.1-0.2,2.2-0.5,3.4-0.7c7.6-1.2,15.3-2.4,21.8,3.5c0.1,0.1,0.2,0.1,0.2,0.1
		c0.7,0.2,1.3,1.2,2,0.4c0.6-0.6-0.1-1.3-0.4-1.8c-1.2-2.2-2.6-4.2-4.3-6.1c-0.4-0.5-1.2-0.9-1-1.6c0.3-1,1.3-0.7,2-0.6
		c6.9,0.9,14.1,0.9,18.3,8c0.4,0.6,0.9,1.4,1.8,1.1c0.9-0.3,0.7-1.3,0.8-2c0.4-2.8-0.4-5.4-1.6-8.3c4.7,1.8,8.3,3.8,7.5,9.4
		c-0.2,1.5,0.4,3.1,0.7,5c2.6-1.9,2.6-5,4.3-7.6c0.9,2.2,1.6,3.9,2.3,5.7c0.3,0.8,0.7,1.9,1.7,1.6c0.9-0.2,0.6-1.3,0.5-2
		c-0.1-1.9-0.4-3.8-0.6-5.7c0.1-1.1,0.8-2.6,0.3-3.3c-2.4-3.4-3.4-7.8-7.2-10.3c-1.5-1-2.6-2-4.1-0.2c-0.7,0.8-1.6,0.5-2.6,0.1
		c-4.1-1.7-8.5-2-12.9-2.3c-1.6-0.1-2.2,0.6-1.1,2c0.3,0.5,0.7,0.9,1.1,1.3c-0.5,0-1.1,0.1-1.6,0.1c-7.7-1.8-15.4-2-23.2-1.2
		c-3.6,0.4-3.9,0.6-2.8,4c0.1,0.2,0,0.4,0,0.6c-0.2,0-0.4,0.1-0.6,0.1C166.5,231.2,166.8,231.8,167.9,232.1z M363.5,341.7
		L363.5,341.7c1.5,0.1,2-1.1,2.5-2c1.2-2.1,2.4-4.3,3.2-6.6c1.1-3.4,2.7-6.8,2.2-10.6c5.2-3.9,8.4-8.9,9.6-15.3
		c0.3-1.4,0.2-2.5-0.9-3.3c-1.1-0.8-2.3-0.3-3.4,0.4c-2.5,1.5-5,3.2-8.1,3.2c-2.8-9.5-9.3-15.4-18.2-19.2c-5.3-2.2-11-2.1-16.5-3
		c-0.8-0.1-1.3,0.4-1.7,0.9c-1.9,2.3,0.1,3.4,1.5,4.6c-1.3,1-2.8,0.7-4.2,0.6c-0.7-1.2-1.8-2.2-3-3c-0.9-0.6-1.7-1.3-2.8-0.3
		c-1.1,1,0.1,1.7,0.4,2.4c0.3,0.6,0.5,1.2,0.7,1.9c-1,0.9-2.2,1.2-3.4,1.4c0.1-1.4,0-2.9-1.5-3.3c-1.4-0.4-2.7,0.4-3.8,1.4
		c-2,1.9-0.1,3.1,0.7,4.6c-2.8,1.6-5.1,3.9-7.6,5.9c-0.8-2-2-1.2-3.1-0.4c-2,1.4-2.6,3.7-3.1,5.9c-0.3,1.2-2,2.5-0.1,3.7
		c0.1,0.9-0.4,1.6-0.7,2.4c-4.2,10-6.1,20.4-3.4,31.1c0.7,2.6,0.6,4-2.6,3.4c-0.5-0.1-1.2-0.2-1.5,0.5c-0.3,0.7,0.2,1.3,0.7,1.7
		c0.5,0.4,1.1,0.8,1.7,1.1c4.8,3.2,10.3,4.5,15.9,5.6c15.2,3,29.9,1.8,43.3-6.4c3.7-2.2,7.2-2,11-1.8c1.1,0.1,2.3,0.3,3.4,0.3
		c0.8,0,2,0.5,2.4-0.4c0.4-1-0.8-1.5-1.5-2.1c-2.5-2.1-5.6-2.7-8.5-3.8C363.6,343,363.5,342.3,363.5,341.7z M224.5,296.6
		c0.1-0.2,0.4-0.5,0.4-0.7c-0.7-6.3-3.8-11.5-7.5-16.4c-3.9-5.1-9.1-8-15.2-10.1c-11.4-4-27.6-0.2-35.3,10.5
		c-1.8,0.3-2.7-1.2-3.8-2.2c-1-0.9-2.1-0.9-3.2-0.5c-1.1,0.4-1,1.5-1.1,2.4c-0.3,4.1,1.3,7.6,3,11.2c-0.9,0.4-1.1,1.1-1.3,2
		c-0.9,3.7-0.8,7.5-0.4,11.1c0.4,3.9,1.2,7.9,3.9,11.1c0.6,1.5,0.6,2.4-1.6,2.4c-3.3,0-5.9,1.6-8.3,4.7c7.5-0.1,14.3,0.1,19.2,6
		c1,1.2,2.5,2.1,3.8,3.1c12.3,9,26,12.8,41.2,11.4c1.9-0.2,3.7-1,5.5-1.5c0.6-0.2,1.2-0.3,1.1-1.1c0-0.6-0.5-0.7-1-0.9
		c-1.5-0.5-2.2-1.2-1.4-3c5.9-12.1,5.6-24.6,2.6-37.3c-0.1-0.4-0.3-0.7-0.4-1.1C224.6,297.4,224.6,297,224.5,296.6z"/>
	<path class="st7" d="M225,633.6c-3.8-1.1-7.1-3.3-10.4-5.4c-20.6-12.8-38.1-29-51.2-49.6c-10.1-15.9-16.6-33.2-19.2-51.9
		c-2.3-16.3-1.7-32.5,1.7-48.6c0.3-1.5,1-2.3,2.3-3c3.5-1.9,7.4-3.2,10.3-6.3c-5.9-0.3-11.3,1.6-17.1,4.5c1.4-3.9,2.4-7.3,3.8-10.5
		c4.3-10.1,10-19.4,17.1-27.8c6-7,12.5-13.5,20.3-18.5c1.5-1,2.9-1.8,4.8-0.8c7.6,4.1,15.7,6.9,23.6,10.4c0.3,0.2,0.6,0.4,1,0.6
		c0.5,1.1,1.4,0.6,2.2,0.7c0,0,0,0,0,0c0.7,1.2,1.7,2,3,2.5c5.4,2.1,10.6,4.8,16,6.9c4.4,1.7,8.9,3.4,13.4,4.8
		c8,2.6,16.3,4.3,24.4,6.4c10.9,2.9,22,5.1,33.3,5.2c12.5,0.2,24.9,0.4,37.4-0.3c8.6-0.5,17.2-1.1,25.9-0.8c1.5,0.1,3,0,4.6-0.2
		c4.4-0.6,8.2,1.9,8.8,5.6c2.5-0.2,4.2-2.1,6.6-2.7c6.1-1.5,12.2-2.7,18.6-2.8c13.9-0.1,24.6,6.2,33.8,15.6
		c5.2,5.3,8.7,11.7,10.9,19.1c2.5,8.4,2.6,16.9,1,25.3c-2.1,11.2-6.4,21.6-12,31.6c-7,12.4-15.7,23.3-25.3,33.6
		c-5.8,6.3-12.5,11.5-19.6,16.4c-4,2.7-8.1,5.5-12.6,7.2c-4.9,1.8-10.1,3.9-15.6,1.5c-0.1,0-0.4,0.4-0.6,0.6
		c-3.6-1.8-3.7-5.5-0.4-8.6c3.9-3.6,8-7.1,11.7-10.9c7.4-7.5,14.6-15.1,21.1-23.4c0.5-0.7,1.1-1.4,1.1-2.3
		c5.3-7.2,10.7-14.5,13.8-23c-2.2,1.4-4.3,2.8-5.9,4.6c-6.4,7.4-12.5,15.2-19.4,22.1c-5.5,5.5-11.3,10.5-17.5,15.1
		c-3.8,2.8-7.8,5.4-11.7,8c-5.9,3.9-12,7.3-18.3,10.5c-5.2,2.6-10.8,4.3-16.5,5.5c-1.9-4.3-0.7-8.5,0.6-12.5
		c2.9-9.1,8.2-16.8,14.3-24.1c8.6-10.3,18.5-19.1,29.3-27c2.1-1.5,4-3.3,5.5-5.4c0.4-0.6,1.2-1.2,0.7-2c-0.5-1-1.7-0.8-2.3-0.4
		c-3.2,1.9-3.7-0.1-4.4-2.6c-3.7-13.6-2.9-27.1,1.3-40.5c2.6-8.3,7.1-15.7,9.9-23.9c0.4-1.1,1.1-2.2,0.8-3.6c-0.9,0-1.4,0.7-1.8,1.3
		c-6.1,8.9-11.9,17.8-14.7,28.4c-3.5,13.5-4,27.1,0.2,40.5c1,3.2,0.5,5-2.3,7.2c-12.1,9.2-23,19.7-31.9,32.2
		c-5.1,7.2-9.1,14.9-10.9,23.6c-0.5,2.3-0.2,4.6-0.3,6.9c0,1-0.4,2,0.4,2.9c0,0.2,0.1,0.4,0.1,0.6c-0.4,2.7,0.2,5.1,1.9,7.3
		c3.5,4.5,8.1,6.9,13.8,7.1c6.3,0.2,12.3-1.3,18.2-3.4c0.7-0.2,1.4-1,2.1-0.2c0.7,0.7,0,1.5-0.3,2.1c-1.6,3.1-3.1,6.3-5.3,9.1
		c-5.8,7.1-13.1,12-21.5,15.5c-8.3,3.5-17,5.2-25.9,5.7c-13.2,0.7-26.4-0.3-39.4-2.7c-10.3-2-20.5-4.4-30.6-7.5
		C229.8,634.4,227.6,633,225,633.6z M243.5,565.5c0,1,0,1.9,0.1,2.9c0.1,3.5,1.9,4.7,5,3.2c4-1.9,7-4.9,9.7-8.4
		c3.5-4.6,5.5-10,7.8-15.2c1.4-3.2,2.4-6.6,2.2-10.2c0.3-1.8,1.3-3.5,0.9-6c-6.8,7.9-11.6,16.7-18.5,24.1c1-5.9,1.2-11.8,0.3-17.7
		c-0.9-5.7-1.4-11.6-4.8-16.7c-0.4,10.2,2.1,20.3-0.1,30.7c-2.6-3.2-3.6-7.3-7.3-9.3c-0.7,1.5-0.1,2.6,0.2,3.8
		c1.2,4.8,2.6,9.6,3.3,14.5C242.5,562.7,241.8,564.5,243.5,565.5z M328.3,503.1c0.5,1.5,1.3,3.6,3.1,1.8c2.2-2.3,4-5.2,5.2-8.4
		c1.4-3.6,3-7,4.1-10.7c1.7-6,4.1-11.9,3.7-18.4c0.1-1,0.2-2.1,0.4-3.1c0.2-1.1,0.5-2.1-0.2-3.6c-5.5,12.7-9.5,25.8-18.3,37.3
		c-0.4-1.7-0.7-2.5-0.8-3.4c-1.1-5.2-3.1-10-6.4-14.3c-0.4-0.6-0.9-1.5-1.8-1.2c-0.9,0.3-0.6,1.4-0.5,2c1.5,6.6,0.2,12.8-1.9,19
		c-1.9,5.6-4.9,10.6-8.8,15c-0.4,0.5-0.8,1.2-1.6,0.9c-0.6-0.3-0.4-1-0.4-1.5c-0.2-1.6-0.2-3.3-0.6-4.8c-1.2-4.6-2.6-9-6-12.7
		c0,2.2,0.3,4.3,0.5,6.5c0.7,6.3,2.2,12.7,0,19c-0.7,2,0.9,3.4,3,2.8c0.8-0.2,1.5-0.8,2.2-1.3c3.9-2.8,6.8-6.7,10.2-10
		c2,2.5,2.2,2.5,3.6-0.3c0.5-1.1,1-2.2,1.6-3.4c1.3,0.8,1.7,2.7,3.4,2.5c2.6-0.4,4.6-2.1,6-4.1c1.3-1.9-1.4-2.6-1.9-4
		c-0.1-0.2-0.2-0.3-0.2-0.5C326.4,503.4,327.2,502.9,328.3,503.1z M219.8,523.9c0-0.7,0.1-1.3,0.1-2c-0.1-0.8,0.5-2-0.4-2.3
		c-1.1-0.4-1.6,0.8-2.1,1.6c-1.7,2.3-3.3,4.7-4.6,7.6c-2.3-3.4-2.8-6.9-3.4-10.4c-1.3-7.1-2.4-14.3,2.4-20.7c0.3-0.4,0.5-1,0.7-1.6
		c0.2-0.5,0.3-1.2-0.2-1.6c-0.5-0.5-1.1-0.1-1.6,0.1c-3.6,1.5-5.9,4.2-7.7,7.5c-1.3,2.3-2.1,4.7-3.1,7.6c-3.7-7.2-6.5-14.1-7.4-21.6
		c-0.5-4.5-0.6-9,0.3-13.5c0.7-3.4,2.7-6.1,4.6-8.9c0.6-0.9,1.9-2.1,0.7-3.3c-0.9-0.9-2.2,0-3.2,0.5c-3.8,1.9-5.8,5.4-8.1,8.7
		c-0.4,0.6-0.2,1.8-1.3,1.6c-0.9-0.2-0.6-1.3-0.7-2c-1.2-7.8,0-15.5,1.5-23.1c0.9-4.4,0.9-4.3,0.2-6.8c-5.6,13.7-7.8,27.1-3.4,41.1
		c-0.4,3.3,0.8,6.3,2.1,9.3c0.6,1.3,1.4,2.3,3,2.2c0.2,1.1,1,2.2,0.7,3.4c0.4,2.2,0.7,4.5,1.3,6.7c2.3,7.5,5.5,14.7,9.6,21.4
		c1.1,1.8,2.2,3.6,4.9,3.1c1.2-0.2,1.7,0.8,1.9,1.8c0.9,5.4,3.9,9.9,6.4,14.7c0.6,1.2,1.5,1.9,2.7,1.8c1.3-0.1,1.8-1.2,2-2.4
		C219,537.6,220.2,530.8,219.8,523.9z M306.9,532.2c-3,0.1-5.5-0.9-7.6-3.2c-0.9-1-1.9-0.7-2.1,0.9c-0.2,2.1,1.2,3.3,2.9,2.9
		C302.4,532.4,304.6,532.8,306.9,532.2z"/>
	<path class="st8" d="M366.3,603.1c0.2-0.2,0.5-0.6,0.6-0.6c5.5,2.3,10.7,0.3,15.6-1.5c4.5-1.7,8.6-4.5,12.6-7.2
		c7-4.8,13.7-10.1,19.6-16.4c9.6-10.3,18.4-21.2,25.3-33.6c5.6-10,9.9-20.4,12-31.6c1.6-8.4,1.5-16.8-1-25.3
		c-2.2-7.3-5.7-13.7-10.9-19.1c-9.2-9.4-19.9-15.7-33.8-15.6c-6.4,0-12.5,1.3-18.6,2.8c-2.3,0.6-4.1,2.5-6.6,2.7
		c-0.6-3.6-4.4-6.1-8.8-5.6c-1.5,0.2-3.1,0.3-4.6,0.2c-8.6-0.4-17.3,0.3-25.9,0.8c-12.5,0.7-25,0.5-37.4,0.3
		c-11.3-0.2-22.4-2.3-33.3-5.2c-8.1-2.2-16.4-3.9-24.4-6.4c-4.5-1.4-9-3.1-13.4-4.8c-5.4-2.1-10.6-4.9-16-6.9
		c-1.3-0.5-2.3-1.3-3-2.5c5.4,1.6,10.8,3.3,16.1,4.9c0.6,0.2,1.2,0.5,2-0.1c-2.8-2.1-6-3.3-9.1-4.7c-4.2-1.9-8.3-4.1-12.4-5.9
		c-11.3-5-22.5-10.4-32.8-17.4c-13.5-9.2-25.9-19.8-35.9-32.8c-6.3-8.2-12.2-16.7-15.3-26.8c-1.9-6.2-1.4-7.3,4.7-10.1
		c0.3,0.2,0.6,0.5,0.5,0.9c-1.6,7.1,1.1,13,5.7,18.1c8.4,9.5,18.9,15.4,31.3,18.1c5.6,1.2,11.2,1.3,16.7-0.5
		c5.4-1.8,7.6-5.9,8.3-11.3c0.1-0.5,0.1-0.9,0.2-1.4c2.3,1.4,4.8,1.8,7.4,2c5.3,0.3,10.7,1.4,14.4,4.9c4.2,3.9,7.5,9,9.5,14.6
		c2.3,6.7,5.2,13,9.5,18.6c5.3,7,11.9,12.5,20.5,15.1c2.7,0.8,4.7,0.6,6.5-2c4.7-6.5,8.4-13.7,13.5-20c6.5-8.1,14.2-14.5,24.2-17.8
		c1.7-0.6,3.4-0.5,5,0.3c2.2,1,4.3,2.1,6.2,3.5c2.4,1.8,4.9,3.3,8.2,2.9c-0.1,5.8,3.2,9.4,7.9,11.9c6.9,3.9,14.6,4.9,22.4,5.3
		c10.4,0.6,20.7-0.4,30.8-2.5c9.7-2,19.3-4.4,28.3-8.9c3.6-1.8,7.1-3.6,10.6-5.6c6.3-3.7,12.3-13.4,10.4-21.3
		c-1.1-4.8-2.8-9.1-5.3-13.2c-1-1.6-1.1-2.7-0.2-4.4c5.7-11.5,10.1-23.4,13.6-35.7c3.6-12.5,6.1-25.2,7.4-38.2
		c0.9-9.3,1.4-18.6,0.8-27.8c-0.6-9.2-1.8-18.4-4-27.4c-2.1-8.7-5-16.9-8.3-25.2c-3.7-9.4-12.7-23.2-18.5-30.4
		c-5-6.1-10.8-11.2-17.1-15.7c-8.7-6.2-18.2-10.6-29.1-11.9c-12.5-1.5-24.3,0.6-36,4.9c-4.1,1.5-7.8,3.9-11.8,5.6
		c-6.2,2.6-11.5,6.4-16.9,10.1c-6.6,4.6-12.6,10-17.8,16.1c-3.8,4.5-7.5,9.2-11.3,13.7c-2.2,2.6-4.5,2.5-6.1-0.5
		c-1-1.9-2.9-3.6-2.3-6.1c2.4,1,3.8,0.3,5.1-2c7.7-13.3,16.5-25.8,26.9-37.1c1-1,1.8-2.3,3.2-2.9c1.6,0.5,2.5-0.6,3.4-1.6
		c2.5-2.8,5.8-4.5,8.1-7.5c1.9-2.5,4.8-4.4,6.9-7c12.2-9.1,25.8-14.5,40.9-16.3c10.1-1.2,18.4,3.6,26.7,8.1c2.8,1.5,5.3,3.9,7.9,5.2
		c11.7,6,21.1,14.7,30.5,23.4c8.2,7.6,15.4,16.1,22.2,25c7.7,10.1,13.7,21.1,18.9,32.7c4.7,10.5,8.2,21.4,10.1,32.8
		c0.8,4.9,1.7,9.8,1.9,14.8c0.2,8.7,0.3,17.4-0.2,26.1c-0.5,9.2-2.5,18.1-4.8,27c-4,15.3-9.7,29.9-16.9,43.9
		c-2.2,4.3-4.6,8.6-6.8,12.9c-1.9,3.6-1.8,4,1.5,6.3c5.3,3.6,9.4,8.2,12,14c0.9,1.9,1.5,3.9,1.8,6.2c-2-0.1-3.2-1.9-5-2.1
		c-1-0.1-2-0.5-3.1-0.6c-0.7-0.1-1.4-0.1-1.8,0.7c-0.4,0.8,0.2,1.2,0.6,1.8c2.9,4.1,3,4.1,0,8.5c-4.9,7.3-11.6,12.9-18.7,18
		c-8.8,6.3-18.2,11.8-28.3,15.7c-9.5,3.6-19.4,5.7-29.3,7.8c-12.9,2.7-25.9,5.1-38.9,7c-9.3,1.4-18.7,3.1-28.1,4.2
		c-4.1,0.5-8.5,0.9-12.9,2.6c1.4,0.8,2.4,0.6,3.4,0.5c8.1-0.8,16.2-1.6,24.3-2.3c6.7-0.6,13.5-1.7,20.2-2.6c6.8-1,13.6-1.9,20.4-3
		c7.6-1.3,15.2-2.7,22.8-4.3c8.1-1.7,16.2-3.6,23.8-6.9c0.9-0.4,1.4,0,2.1,0.4c13,8.4,24.7,18.4,35.5,29.3c6,6.1,11.5,12.7,16,19.9
		c7.3,11.8,12.9,24.4,14.5,38.6c1.4,12.1-0.4,23.7-5.3,34.7c-3.2,7.1-7.8,13.4-13,19.2c-6.5,7.3-13.3,14.3-21.2,20.1
		c-7.8,5.7-15.9,10.6-25.7,12c-2,0.3-4.7,1.2-5.6-0.5c-0.6-1,2.2-2.6,3.6-3.7c8.3-6.8,15.3-14.8,22.3-22.7c0.4-0.5,0.6-1.1,1.1-2.2
		c-2.4,0.8-4,2.2-5.5,3.4c-8.2,7-16.3,14.2-24.9,20.8c-6,4.6-12.7,7.7-19.6,10.6c-5.4,2.2-10.9,3.4-16.6,3.1
		C370.7,605.6,368,605.4,366.3,603.1z"/>
	<path class="st8" d="M225,633.6c2.6-0.6,4.9,0.9,7.2,1.6c10,3.2,20.2,5.6,30.6,7.5c13.1,2.5,26.2,3.5,39.4,2.7
		c8.9-0.5,17.5-2.1,25.9-5.7c8.5-3.6,15.8-8.4,21.5-15.5c2.2-2.7,3.7-5.9,5.3-9.1c0.3-0.6,0.9-1.4,0.3-2.1c-0.7-0.8-1.4,0-2.1,0.2
		c-5.9,2.1-11.9,3.6-18.2,3.4c-5.7-0.2-10.3-2.6-13.8-7.1c-1.7-2.2-2.3-4.6-1.9-7.3c4.2,8,12.4,9.1,19.8,6.9
		c6.2-1.9,11.9-4.7,17.3-8.1c1.4-0.9,2-1.3,2.7,0.9c2,5.4,6.5,7.8,12,8.4c12.2,1.2,22.9-3.1,33.1-9.2c1.8-1.1,3.2-1.4,5.3-0.3
		c4.9,2.4,10,1.4,14.8-0.1c10.1-3.2,18.9-8.7,27-15.5c8.3-6.9,15.6-14.7,22.3-23c4-5,6.9-10.6,9.6-16.4c4.4-9.7,5.8-19.7,5.5-30.1
		c-0.3-10-2.8-19.5-6.6-28.6c-0.6-1.5-1.5-2.9-1.5-4.6c2.9,0.5,3.5,3.4,4.3,5.2c3.8,7.7,7.5,15.6,8.7,24.3c1,7.3,1.9,14.6,1,22
		c-0.5,3.5-1.6,7-0.9,10.7c-0.3,0-0.6,0.1-0.9,0.1c-2.3-0.4-4.1,0.6-5,2.5c-1,2,0.3,3.4,1.8,4.6c0.8,0.7,0.7,1.4,0.4,2.3
		c-1.7,5-3.6,10-6.5,14.5c-1.5,2.3-3.5,4.6-2.9,7.8c0.6,3.8,1.3,7.5,1.9,11.3c1.6,10.6,2.4,21.3,2.6,32c0.1,7.1-0.5,14.3-1.6,21.4
		c-1,6.9-2.5,13.7-5.2,20.1c-1.2,2.8-2.7,5.6-3.5,8.6c0,0,0,0,0,0c-0.2,0.2-0.4,0.4-0.6,0.6c0,0,0,0,0,0c-0.8,0.3-1.4,1-1.8,1.8
		c0,0,0,0,0,0c-0.8,0.3-1.2,0.9-1.2,1.8c-5.8,5.3-12.2,9.4-19.9,11.8c-4.3,1.3-8.3,3-12.9,3.2c-10,0.6-18.5-3.3-26.4-8.8
		c-11.9-8.3-24.4-15.7-38.1-20.7c-0.5-0.2-1-0.5-1.8-0.9c22.5-7.1,42.7-18,62.3-30.2c0.4-0.2,0.6-0.7,0.6-1.5
		c-2.2,0.9-4.5,1.7-6.7,2.7c-4.1,1.9-8.1,4.3-12.3,6.1c-4.8,2.1-9.7,4.1-14.5,6.1c-9.4,3.9-18.8,7.7-28.5,10.9
		c-7.8,2.6-15.9,4-24.1,5.1c-11.3,1.5-22.6,1.4-33.9,1.2c-9.6-0.2-19-1.5-28.5-3.1c-12.4-2.1-24.4-5.5-36.2-9.8
		c-8.3-3.1-16.5-6.6-24.3-10.9C225.7,634.6,225.1,634.3,225,633.6z M492.1,538.9c0-0.1-0.1-0.1-0.1-0.2c0,0-0.1,0-0.1,0
		C491.9,538.7,492,538.8,492.1,538.9c0,0.1,0,0.2,0.1,0.2c0,0,0.1,0,0.2,0C492.3,539,492.2,538.9,492.1,538.9z"/>
	<path class="st7" d="M474.8,669.8c0.8-3,2.3-5.7,3.5-8.6c2.8-6.4,4.2-13.2,5.2-20.1c1.1-7.1,1.7-14.3,1.6-21.4
		c-0.2-10.7-1-21.4-2.6-32c-0.6-3.8-1.3-7.5-1.9-11.3c-0.5-3.2,1.4-5.5,2.9-7.8c2.9-4.5,4.8-9.5,6.5-14.5c0.3-0.9,0.4-1.6-0.4-2.3
		c-1.5-1.2-2.8-2.7-1.8-4.6c1-1.9,2.7-2.9,5-2.5c0.3,0,0.6,0,0.9-0.1c-0.7-3.7,0.4-7.2,0.9-10.7c0.9-7.4,0.1-14.7-1-22
		c-1.2-8.7-4.9-16.5-8.7-24.3c-0.9-1.8-1.4-4.7-4.3-5.2c-5.2-9.2-10.6-18.2-17.7-26.1c-0.7-0.8-1.1-1.5-0.3-2.5
		c9.4-11.5,20.1-21.5,35.1-25.1c8.6-2,13.9,0.8,17.8,8.8c5.4,11.2,8.7,23.1,10.7,35.4c1.8,11.3,2,22.6,0.5,33.8
		c-1,6.9-2.7,13.7-5,20.3c-5.2,14.9-13.5,27.8-23.9,39.5c-2.4,2.7-4.5,5.5-6.5,8.4c-0.3,0.5-1,1.1-0.3,1.8c0.5,0.4,1.1,0,1.6-0.3
		c1.4-0.8,2.9-1.5,4.2-2.5c2-1.5,2.2-0.4,2.2,1.3c0.3,5.1-0.2,10.2-0.7,15.2c-0.9,11.2-2.3,22.3-4.5,33.3
		c-2.9,14.6-6.7,29-15.1,41.6C477.7,667,476.7,668.8,474.8,669.8z"/>
	<path class="st8" d="M161.1,428.8c-3.2,4.3-6.6,8.5-9.6,12.8c-9.2,13.2-15.2,27.8-17.4,43.8c-0.2,1.4-0.3,2.9,1,3.6
		c1.7,0.9,2.8-0.3,4.1-2.2c-0.3,3.8-0.4,6.8-0.7,9.8c-1.5,13.8-0.2,27.3,2.6,40.8c2.4,11.7,6.8,22.7,12,33.4
		c0.4,0.7,1.3,1.6,0.6,2.3c-0.7,0.7-1.8,0.4-2.7,0.1c-11.7-3.3-23.2-6.9-33.9-12.8c-7.6-4.3-14.8-9.1-20.9-15.5
		c-0.6-0.6-1.1-1.1-1-1.9c1-0.2,1.9-0.1,2.8,0.1c4.1,0.8,8.3,0.9,12.4-0.2c5.6-1.5,7.3-5.4,4.4-10.5c-0.5-0.9-1.3-1.7-1-2.9
		c2.2,0.1,4.1,1.4,7,1.1c-2.4-2.2-5.1-3-7.5-4.3c-2.2-1.2-4.7-1.7-6.5-3.5c0.7-2.5,1.3-5.1-1.3-6.7c-2-1.2-3.5-2.7-4.9-4.5
		c-1.9-2.6-4.3-2.7-6.7-0.4c-1.3,1.3-2.7,2.4-4.2,3.4c-3.2-0.3-5.5-2.6-7.9-4.3c-9.3-6.2-17.8-13.5-24.2-22.8
		c-3.5-5-6.5-10.3-8.2-16.2c1,0.2,1.7,0.7,2.4,1.5c4,4.9,8.9,8.8,14.5,11.8c9.9,5.3,20.2,8.3,31.7,7.1c9-0.9,15.8-6.7,14.7-16.2
		c0.4-1,0.1-1.5-1.4-2.1c-2.3-1-4.6-2.2-7.1-3c-3.5-1-6.6-2.9-9.8-4.5c-10.4-5-20.7-10.3-30-17.3c-6.2-4.6-10.5-10.7-14.3-17.3
		c-2.1-3.6-4.2-7.3-5.3-11.4c2.6,0.7,4.1,2.9,5.9,4.6C57,431,64.9,435,73,438.3c7.2,3,14.9,5,22.7,5.7c7.5,0.7,15,0.9,22.5-0.1
		c6.7-0.9,13.3-2.4,19.7-4.7c4.9-1.7,9.5-3.9,14.2-5.9C155.2,432.1,157.5,429.1,161.1,428.8z M107.9,498.5c-0.4,0.1-1,0.1-1.4,0.4
		c-2.5,1.5-4.4,3.7-6.2,5.9c-0.7,0.9-0.3,1.8,0.7,2.7c2.6,2.4,5.2,4.8,7.5,7.4c1.1,1.2,1.8,3.3,3.6,1.6c1.7-1.7-0.6-2.7-1.6-3.6
		c-2-1.8-1.1-2.9,0.6-4c1.7-1.2,3-0.1,4.4,0.8c1.5,1,3.4,1.3,4.2-0.5c0.7-1.6-1.4-1.7-2.3-2.2c-1.9-1-3.4-1.8-4-4.3
		C112.8,500.5,110.9,498.6,107.9,498.5z M124.1,504.8c-0.3-0.4-0.5-0.7-0.7-1c-1.1-1.5-3.7-2.4-3.5-4.3c0.2-1.9,2.4-3.1,3.9-4.4
		c0.1-0.1,0.1-0.1,0.2-0.2c0.7-0.7,0.7-1.3,0-2c-0.7-0.7-1.3-0.7-2-0.1c-1.1,1-2.3,1.8-3.2,2.8c-1,1.2-2,1.5-3.1,0.4
		c-1.2-1.2-0.9-2.4,0.3-3.5c1.2-1,2.4-1.9,3.2-3.2c0.4-0.6,1.3-1.1,0.2-1.8c-0.7-0.5-1.4-0.5-2,0.2c-1.6,1.6-3.3,3.2-4.9,4.8
		c-1,1-1.6,2.4-0.7,3.4c3.1,3.4,5.9,7.1,9.6,9.8C122.5,506.4,123.3,505.6,124.1,504.8z"/>
	<path class="st7" d="M161.1,428.8c-3.6,0.3-5.9,3.3-9,4.6c-4.7,2-9.4,4.2-14.2,5.9c-6.4,2.2-13,3.7-19.7,4.7
		c-7.5,1-15,0.8-22.5,0.1c-7.8-0.7-15.5-2.7-22.7-5.7c-8.1-3.4-16-7.3-22.4-13.7c-1.8-1.8-3.3-3.9-5.9-4.6
		c-3.5-8.8-5.6-17.9-4.1-27.5c1.1-7.4,4.9-9.7,12-7.4c7,2.3,13.1,6.4,19.1,10.4c9.7,6.4,18.8,13.5,29.1,19c6.8,3.6,14,6,21.5,7.9
		c11.4,3,23,4.1,34.7,3.8c2.2,0,4.3-0.9,6.7-0.3C162.8,427,162,427.9,161.1,428.8z"/>
	<path class="st7" d="M112.6,475.5c1.1,9.5-5.7,15.3-14.7,16.2c-11.5,1.2-21.8-1.8-31.7-7.1c-5.6-3-10.5-6.9-14.5-11.8
		c-0.7-0.8-1.4-1.3-2.4-1.5c-2.8-7.8-3.8-15.6-0.6-23.6c1.6-4,3.2-4.3,6.3-1.5c12.4,11.5,26.8,19.7,42.7,25.2
		C102.6,473.2,107.5,474.9,112.6,475.5z"/>
	<path class="st8" d="M226.8,641c7.1,3,13.9,6.4,21.1,9.1c8.3,3.1,16.8,5.7,25.5,7.7c8.9,2.1,17.9,3.9,27.1,4.5c0.6,0,1.3,0,1.5,0.6
		c0.2,0.6-0.5,1-0.8,1.4c-6.1,6.6-13.7,11-22.2,13.7c-7.2,2.3-14.6,3.2-22.1,2.6c-0.4-1.7-1.9-1-2.9-1c-3.4,0-6.4-1.1-9.1-2.9
		c-7.5-5.1-11.5-12.9-15.5-20.7c-1.9-3.8-2.5-8.1-3.5-12.3C225.6,642.5,225.9,641.7,226.8,641z"/>
	<path class="st8" d="M324.3,600.6c5.7-1.2,11.3-2.9,16.5-5.5c6.3-3.1,12.4-6.6,18.3-10.5c3.9-2.6,7.9-5.2,11.7-8
		c6.2-4.6,12-9.7,17.5-15.1c7-7,13-14.7,19.4-22.1c1.6-1.8,3.7-3.2,5.9-4.6c-3.1,8.6-8.4,15.8-13.8,23c-2.2,0.6-3.6,2.5-5.2,3.9
		c-8.7,7.9-17.2,16.1-26,24c-8.7,7.7-18.2,14.3-29.3,18.1c-3.5,1.2-7.2,2-11,0.7C326.5,603.9,324.8,602.8,324.3,600.6z"/>
	<path class="st7" d="M226.8,641c-0.9,0.7-1.2,1.5-0.9,2.7c1,4.2,1.6,8.5,3.5,12.3c3.9,7.8,8,15.6,15.5,20.7
		c2.7,1.8,5.7,2.9,9.1,2.9c1,0,2.4-0.7,2.9,1c-21.4-0.4-38.8-14-44.9-33.2c-1.7-5.4-2.8-10.9-3-17.1
		C215.1,634.1,220.9,637.6,226.8,641z"/>
	<path class="st7" d="M113.9,529.6c-0.3,1.2,0.5,2,1,2.9c2.9,5.1,1.2,9-4.4,10.5c-4.1,1.1-8.3,1-12.4,0.2c-1-0.2-1.9-0.3-2.8-0.1
		c0,0,0-0.1,0-0.1c-0.1-0.4-0.3-0.5-0.6-0.5c-3.7-2.2-5.8-5.8-7.7-9.4c-2.3-4.3-4.5-8.6-4.3-13.8c0.1-2.2,0.8-2.5,2.5-1.4
		c5.6,3.4,11.7,5.3,17.9,7.4C106.7,526.5,110.3,528.1,113.9,529.6z"/>
	<path class="st8" d="M89.7,514.6c1.5-1,2.9-2.1,4.2-3.4c2.4-2.3,4.8-2.2,6.7,0.4c1.4,1.9,2.9,3.3,4.9,4.5c2.7,1.5,2,4.2,1.3,6.7
		c-1.3,0-2.6-0.1-3.5-1.4c1.1-1.5,0.5-2.9-0.9-3.6c-1.6-0.9-2.9-0.1-3.7,1.4c-1,0-2.2,0.4-2.5-1.1c0.4-0.5,0.9-1,1.2-1.6
		c0.4-1,2.1-2,0.7-3.1c-1.4-1.1-2.9-0.5-4,0.7c-0.5,0.6-1.2,1.2-1.2,2.2C91.6,516.5,90.5,515.7,89.7,514.6z"/>
	<path class="st1" d="M498.1,741.2c7.2,2.7,13.6,6.8,21.3,8.3c1.8,0.3,0,2.1,0.3,3.2c0.2,0.8-0.3,1.2-1.2,0.9
		C510.7,751.1,503.9,747,498.1,741.2z"/>
	<path class="st8" d="M93.1,516.3c-0.1-1,0.6-1.6,1.2-2.2c1.1-1.3,2.6-1.8,4-0.7c1.5,1.2-0.2,2.1-0.7,3.1c-0.3,0.6-0.8,1-1.2,1.6
		C95.1,517.7,93.9,517.4,93.1,516.3z"/>
	<path class="st8" d="M98.9,519.2c0.8-1.6,2.1-2.3,3.7-1.4c1.4,0.8,2,2.1,0.9,3.6C101.7,521.2,100.2,520.4,98.9,519.2z"/>
	<path class="st7" d="M472.5,672.1c0.4-0.8,0.9-1.4,1.8-1.8C474.2,671.5,473.6,672.1,472.5,672.1z"/>
	<path class="st8" d="M319,601.7c-0.9-0.8-0.4-1.9-0.4-2.9C319.4,599.7,319,600.7,319,601.7z"/>
	<path class="st8" d="M214.2,427.6c-0.8-0.1-1.8,0.4-2.2-0.7C212.7,427,213.6,426.7,214.2,427.6z"/>
	<path class="st7" d="M471.3,673.8c0-0.8,0.4-1.4,1.2-1.8C472.6,673,472.1,673.5,471.3,673.8z"/>
	<path class="st7" d="M474.2,670.4c0.2-0.2,0.4-0.4,0.6-0.6C474.8,670.2,474.6,670.4,474.2,670.4z"/>
	<path class="st8" d="M94.6,542.5c0.4,0,0.6,0.1,0.6,0.5C95.1,542.8,94.8,542.6,94.6,542.5z"/>
	<path class="st1" d="M284.5,762c0.1-0.1,0.2-0.2,0.2-0.2c0,0.1,0,0.1,0,0.1C284.6,762,284.6,762,284.5,762
		C284.5,762,284.5,762,284.5,762z"/>
	<path class="st3" d="M264.8,111.2c0.4-3.6,1.1-7.6,3-11.2c0.3-0.6,0.7-1.6,1.6-1.4c0.9,0.2,0.8,1.2,0.8,1.9
		c0.1,4.4-0.9,8.5-2.7,12.5c-0.4,0.8-0.8,2.1-1.9,1.9c-1.1-0.2-0.6-1.6-0.8-2.5C264.8,112.2,264.8,111.9,264.8,111.2z"/>
	<path class="st3" d="M302.3,70.7c-0.4,0-0.7,0.1-1.1,0.1c-1.4-5.8,1-10.8,3.4-15.7c0.2-0.4,0.6-0.8,1.1-0.7c0.9,0.2,0.7,1,0.7,1.7
		c0.1,3.9-1.1,7.5-2.4,11.1C303.7,68.4,302.9,69.5,302.3,70.7z"/>
	<path class="st3" d="M348.9,57.1c-0.4,3-1.2,5.5-2.5,7.9c-0.3,0.6-0.7,1.3-1.5,1.1c-0.7-0.1-0.8-0.8-0.8-1.3
		c-0.2-3.5,0.6-6.8,2.6-9.7c0.4-0.5,0.9-0.9,1.4-0.5C349,55.3,348.7,56.5,348.9,57.1z"/>
	<path class="st8" d="M320.3,115.7c-2.1,2.6-4.9,4.5-6.9,7c-2.4,3-5.7,4.8-8.1,7.5c-0.9,1-1.8,2-3.4,1.6c2.3-4,6.1-6.6,9.4-9.5
		C314,119.9,316.7,117.2,320.3,115.7z"/>
	<path class="st3" d="M399.1,78.9c-0.1,0.3-0.1,0.5-0.1,0.7c-0.5,1.9-1.1,3.9-3,4.9c-0.6,0.3-1.2-0.1-1.3-0.8
		c-0.4-2.2,0.4-4.1,1.8-5.8c0.4-0.5,1-1,1.7-0.8C399.1,77.4,398.7,78.4,399.1,78.9z"/>
	<path class="st16" d="M203.7,739.9c-10.1,1.6-13.9,8.5-16,16.8c-0.8,3-1.6,6.1-1.3,9.3c0.1,1-0.2,1.6-1.4,1.7
		c-4.3,0.4-8-0.8-10.6-4.3c-1.2-1.6-1.1-3.8-1-5.5c0.4-7.1,2.5-13.7,8.1-18.6c2-1.7,4.2-2.7,6.8-2.7
		C193.4,736.6,198.4,737.6,203.7,739.9z"/>
	<path class="st16" d="M271.3,763.8c-0.1,0.4-0.2,0.8-0.3,1.2c-0.1-0.1-0.2-0.1-0.2-0.2c-0.2-0.5,0-0.9,0.4-1.2
		C271.2,763.7,271.3,763.8,271.3,763.8z"/>
	<path class="st1" d="M319.1,380.9c-3.2,0.5-5.8-1-8.2-2.9c-1.9-1.5-4.1-2.5-6.2-3.5c-1.6-0.8-3.4-0.9-5-0.3
		c-10,3.3-17.7,9.6-24.2,17.8c-5.1,6.3-8.8,13.4-13.5,20c-1.8,2.5-3.8,2.8-6.5,2c-8.6-2.6-15.1-8.1-20.5-15.1
		c-4.3-5.6-7.2-12-9.5-18.6c-1.9-5.6-5.3-10.7-9.5-14.6c-3.7-3.4-9.2-4.5-14.4-4.9c-2.6-0.2-5.1-0.6-7.4-2c-0.9-2.8,0.6-4.3,3-5.4
		c4.9-2.2,9-0.9,12.9,2.6c5.8,5.3,8.8,5.4,15.2,0.7c3.8-2.8,7.2-6,11-8.9c6.2-4.7,10.7-4.5,16.3,1c3.3,3.3,6.2,7.1,9.2,10.6
		c2.8,3.3,5.7,6.4,9,9.2c5.1,4.3,10.9,3.3,16.7,2.8c7.2-0.7,14-3.1,21.2-4c4.3-0.6,8.2,0.6,11.7,3.1
		C324,373.2,324.6,379.3,319.1,380.9z M246,349.7c-2-1.8-3.7-0.7-5.2,0.7c-1,0.6-1.9,1.2-2.9,2c-3.7,3.2-7.7,6.2-11.6,9.3
		c-1.3,1-3.8,1.1-4.2,2.7c-0.5,1.7,1.6,2.8,2.6,4.2c2.7,3.8,4.6,8.2,8.1,11.4c1.7,1.6,3.5,2.8,6.1,1.1c2.1-1.4,4.7-2.1,7-3.2
		c6-2.9,12.5-4,18.9-5.6c0.6-0.1,1.5,0.1,1.7-0.8c0.1-0.7-0.6-1.1-1.1-1.6c-2.7-2.5-5.2-5.3-7.6-8.1
		C254,357.6,250.9,352.8,246,349.7z M281.9,377.8c-7,2.1-13.7,4.7-19.9,8.2c-5.1,2.9-10.2,5.8-14.6,9.9c-1.3,1.2-2.6,2.3-4.5,2.2
		c-1.3-0.1-2.1,0.4-0.8,1.6c4,3.9,8.3,7.4,13.7,9.1c1.1,0.4,1.9,0.2,2.8-0.8c2.5-3.1,4.5-6.6,6.5-10c2.8-4.5,6-8.8,9.6-12.8
		C277,382.7,279.8,380.6,281.9,377.8z M267.7,377.6c-12,0.2-21.5,6.1-31.8,9.7c1,2.2,2.8,3.5,4.6,4.9c1.5,1.2,2.9,0.9,4.3-0.4
		C251.2,385.8,259,381.8,267.7,377.6z"/>
	<path class="st16" d="M225.1,298.9c3,12.7,3.3,25.3-2.6,37.3c-0.8,1.7-0.1,2.5,1.4,3c0.5,0.2,1,0.3,1,0.9c0.1,0.7-0.5,0.9-1.1,1.1
		c-1.8,0.5-3.7,1.3-5.5,1.5c-15.2,1.4-28.9-2.5-41.2-11.4c-1.3-1-2.8-1.8-3.8-3.1c-4.9-6-11.7-6.1-19.2-6c2.4-3.1,5-4.7,8.3-4.7
		c2.2,0,2.1-0.8,1.6-2.4c0.1-5.8-0.4-11.7,1-17.5c1.1-4.4,1.1-4.4-3.1-6.8c-1.8-3.5-3.3-7.1-3-11.2c0.1-1,0-2,1.1-2.4
		c1.1-0.4,2.2-0.4,3.2,0.5c1.1,1,1.9,2.5,3.8,2.2c3.9,1.5,7.5,0.6,10.8-1.7c5.3-3.7,11.3-5.4,17.6-5.1c9.1,0.4,16.6,4.5,22.5,11.6
		c3,3.6,4.6,7.9,6.8,11.9c0,0.4,0.1,0.8,0.1,1.2C224.6,298.3,224.6,298.7,225.1,298.9z M222,315.1c0-2.2,0.1-3.9,0-5.5
		c-0.4-6.4-2.2-12.3-7.1-16.7c-8.8-7.8-19.1-10.2-30.5-8.4c-8.3,1.4-13.6,6.3-15,14.8c-0.8,4.7-0.8,9.3-0.7,14.1
		c0.1,3.5,1.4,6.1,4.2,8.5c6.5,5.6,13.6,9.7,21.5,13c4.2,1.8,8.7,2.2,13,3c6.8,1.2,10.4-1,12.2-6.7
		C221.2,325.7,222.8,320.2,222,315.1z"/>
	<path class="st16" d="M222.2,239.6c0.2,1.9,0.4,3.8,0.6,5.7c0,0.7,0.4,1.8-0.5,2c-1,0.3-1.4-0.8-1.7-1.6c-0.8-1.7-1.4-3.5-2.3-5.7
		c-1.7,2.6-1.7,5.6-4.3,7.6c-0.3-1.9-0.9-3.5-0.7-5c0.7-5.6-2.9-7.6-7.5-9.4c1.2,2.9,2,5.5,1.6,8.3c-0.1,0.7,0.1,1.7-0.8,2
		c-0.9,0.3-1.5-0.5-1.8-1.1c-4.2-7.1-11.5-7.1-18.3-8c-0.7-0.1-1.7-0.4-2,0.6c-0.2,0.7,0.6,1.2,1,1.6c1.7,1.8,3.1,3.9,4.3,6.1
		c0.3,0.5,1,1.2,0.4,1.8c-0.7,0.8-1.4-0.2-2-0.4c-0.1,0-0.2-0.1-0.2-0.1c-6.5-6-14.1-4.8-21.8-3.5c-1.1,0.2-2.3,0.4-3.4,0.7
		c-0.2,0-0.4-0.1-0.7-0.1c0.3-1.6,1.5-2.3,2.7-3c2.4-0.8,4.6-1.9,6.9-3.5c-1.3-0.8-2.4-1.5-3.5-2.1c0,0-0.2-0.1-0.2-0.1
		c-0.1-0.6-0.3-1.1-0.4-1.7c0.2,0,0.4-0.1,0.6-0.1c9.4-1.9,18.8-1.5,28.6,0.9c-1.2-1.7-3-2.3-2.6-4.2c0.5,0,1.1-0.1,1.6-0.1
		c4.8,0.9,9.8,1.4,14.4,3.2c0.6,0.2,1.2,0.2,1.4-0.5c1-2.6,2.1-0.8,3.1-0.1C218.4,231.9,220.4,235.7,222.2,239.6z"/>
	<path class="st16" d="M373.8,251.1c0,0.2,0.1,0.4,0.1,0.6c-0.8,1.6-3.1,1.3-3.9,3.1c3.6,1,6.6,2.9,9.6,4.6c2.6,1.5,4.7,3.8,7.6,4.9
		c0.1,0.1,0.3,0.1,0.4,0.1c0.1,0.7,0.5,1.1,1.2,1.1c0,0,0.1,0.1,0.1,0.1c0.1,0.6,0.5,1,1.1,1.1c0.4,0.5,0.7,1.1,1.4,2
		c-2.2-0.3-3.9-1-5.6-1.7c-5.7-2.5-11.5-4.7-17.5-6.5c-2.6-0.8-5-1.1-7.2,1c-0.4,0.4-1.1,1.3-2,0.6c-0.6-0.5-0.4-1.4-0.4-2.1
		c0.1-3.1,2.2-5.2,4.4-7.6c-7.1,0.5-13.2,1.8-17.7,7.2c-0.5,0.6-1.1,1.6-2.1,1.1c-0.9-0.4-0.9-1.4-1-2.3c-0.1-1.4,0-2.8,0-4.2
		c-0.9-0.1-1,0.8-1.6,1.3c-0.5,0.5-1.3,1.3-1.5,1.2c-3.1-1.8-4.5,0.8-6.5,2.4c1.3-5.9,4.5-10.5,8.4-14.8c0.2-0.2,0.4-0.4,0.6-0.5
		c0,0,0.1,0,0.1,0c4.1-1.2,8.1,1.2,12.2,0.6c1.2-0.2,0.9,1.1,0.4,1.9c-0.7,1.1-2.1,1.6-2.5,3.2C359.3,249.1,366.6,249.3,373.8,251.1
		z M342.9,253.1l0.2,0.1l0-0.2L342.9,253.1z"/>
	<path class="st8" d="M224.5,296.6c-2.2-4-3.8-8.3-6.8-11.9c-5.9-7.1-13.3-11.2-22.5-11.6c-6.3-0.3-12.3,1.4-17.6,5.1
		c-3.3,2.3-6.9,3.2-10.8,1.7c7.7-10.7,23.9-14.5,35.3-10.5c6.1,2.1,11.4,5,15.2,10.1c3.7,4.9,6.8,10.2,7.5,16.4
		C224.9,296.2,224.7,296.4,224.5,296.6z"/>
	<path class="st8" d="M368.6,307.5c-3.1,0.7-5.3-0.5-7.2-3c-5.1-6.7-11.6-11.2-20.1-12.7c-2.5-0.4-5-0.7-7.6-0.9
		c-1.4-1.2-3.3-2.3-1.5-4.6c0.4-0.5,0.9-1,1.7-0.9c5.5,0.8,11.2,0.7,16.5,3C359.2,292.1,365.8,298,368.6,307.5z"/>
	<path class="st8" d="M373.8,251.1c-7.2-1.8-14.5-2-22-1.7c0.4-1.6,1.8-2.2,2.5-3.2c0.5-0.8,0.8-2.1-0.4-1.9
		c-4.1,0.6-8.1-1.9-12.2-0.6c2.5-3.7,3.2-3.8,7.7-2.8c1.9,0.4,4-0.1,6-0.1c0.7,0,1.4,0,1.8,0.6c0.6,0.8-0.4,1.1-0.6,1.7
		c-0.4,0.8-1.6,1.4-1,2.5c0.5,0.9,1.6,0.5,2.4,0.4c5.9-0.8,11.5,1.6,17.3,1.3c0.6,0,1.1,0.4,1.2,1c0.1,0.5-0.1,0.9-0.6,1.2
		C375.2,249.9,374.2,250.1,373.8,251.1z"/>
	<path class="st8" d="M222.2,239.6c-1.8-3.9-3.8-7.7-7.5-10.1c-1-0.7-2.2-2.5-3.1,0.1c-0.2,0.6-0.8,0.7-1.4,0.5
		c-4.6-1.8-9.6-2.3-14.4-3.2c-0.4-0.4-0.7-0.9-1.1-1.3c-1.1-1.5-0.5-2.1,1.1-2c4.4,0.3,8.8,0.6,12.9,2.3c1,0.4,1.9,0.7,2.6-0.1
		c1.6-1.7,2.6-0.8,4.1,0.2c3.7,2.6,4.8,6.9,7.2,10.3C223,237,222.3,238.4,222.2,239.6z"/>
	<path class="st8" d="M194,227c-0.4,1.9,1.4,2.5,2.6,4.2c-9.8-2.4-19.2-2.7-28.6-0.9c0-0.2,0.1-0.4,0-0.6c-1.1-3.3-0.8-3.6,2.8-4
		C178.6,224.9,186.4,225.2,194,227z"/>
	<path class="st8" d="M161.8,290.9c4.3,2.4,4.2,2.5,3.1,6.8c-1.4,5.7-0.9,11.6-1,17.5c-2.7-3.2-3.5-7.2-3.9-11.1
		c-0.4-3.7-0.4-7.4,0.4-11.1C160.7,292,160.8,291.2,161.8,290.9z"/>
	<path class="st8" d="M363.6,341.7c1.5-5.2,3-10.4,3.4-15.9c0.2-2.9,2.8-2.3,4.5-3.2c0.5,3.8-1.1,7.1-2.2,10.6
		c-0.7,2.3-2,4.4-3.2,6.6C365.6,340.7,365.1,341.8,363.6,341.7z"/>
	<path class="st8" d="M387.2,264.4c-2.9-1.1-5-3.4-7.6-4.9c-3-1.8-6-3.6-9.6-4.6c0.9-1.8,3.1-1.6,3.9-3.1c3.6,3,7.2,6.2,10.9,9.1
		C386.1,261.8,387.1,262.7,387.2,264.4z"/>
	<path class="st8" d="M309.3,302.4c-2.1,3.1-4.2,6.1-6.4,9.2c-1.8-1.3-0.1-2.6,0.1-3.7c0.5-2.2,1.2-4.4,3.1-5.9
		C307.2,301.2,308.5,300.4,309.3,302.4z"/>
	<path class="st8" d="M321.4,293.8c0,0.8-0.1,1.7-1.2,1.5c-1.4-0.2-2.2,0.9-3.4,1.1c-0.8-1.4-2.7-2.7-0.7-4.6c1.1-1,2.4-1.8,3.8-1.4
		C321.4,291,321.5,292.5,321.4,293.8z"/>
	<path class="st8" d="M329.4,291.4c-1.4,0.8-3,0.8-4.6,1c-0.2-0.6-0.5-1.2-0.7-1.9c-0.4-0.8-1.5-1.4-0.4-2.4c1-0.9,1.9-0.3,2.8,0.3
		C327.6,289.3,328.7,290.2,329.4,291.4z"/>
	<path class="st8" d="M168,232.2c1.1,0.7,2.1,1.3,3.5,2.1c-2.3,1.5-4.5,2.7-6.9,3.5c-0.2-1.2,0.5-1.8,1.4-2.5
		C167.1,234.6,168.2,233.8,168,232.2z"/>
	<path class="st8" d="M167.5,230.4c0.1,0.6,0.3,1.1,0.4,1.7C166.8,231.8,166.5,231.2,167.5,230.4z"/>
	<path class="st8" d="M388.8,265.6c-0.7-0.1-1.1-0.5-1.2-1.1C388.3,264.6,388.6,264.9,388.8,265.6z"/>
	<path class="st8" d="M362.9,343.3c0-0.6-0.1-1.3,0.6-1.6C363.5,342.3,363.6,343,362.9,343.3z"/>
	<path class="st8" d="M389.9,266.8c-0.6-0.1-1-0.5-1.1-1.1C389.4,265.8,389.8,266.1,389.9,266.8z"/>
	<path class="st8" d="M225.1,298.9c-0.5-0.2-0.5-0.7-0.4-1.1C224.8,298.2,224.9,298.6,225.1,298.9z"/>
	<path class="st8" d="M341.7,243.7c-0.2,0.2-0.4,0.4-0.6,0.5C341.3,244.1,341.5,243.9,341.7,243.7z"/>
	<path class="st16" d="M183,482.4c-4.4-14-2.2-27.4,3.4-41.1c0.7,2.4,0.7,2.4-0.2,6.8c-1.5,7.6-2.7,15.3-1.5,23.1
		c0.1,0.7-0.1,1.8,0.7,2c1.1,0.3,0.9-1,1.3-1.6c2.3-3.3,4.4-6.8,8.1-8.7c1-0.5,2.2-1.5,3.2-0.5c1.2,1.1-0.1,2.4-0.7,3.3
		c-1.9,2.8-3.9,5.4-4.6,8.9c-0.9,4.5-0.9,9-0.3,13.5c0.9,7.5,3.7,14.4,7.4,21.6c1-2.9,1.8-5.4,3.1-7.6c1.8-3.3,4.2-6,7.7-7.5
		c0.5-0.2,1-0.7,1.6-0.1c0.4,0.5,0.3,1.1,0.2,1.6c-0.2,0.5-0.4,1.1-0.7,1.6c-4.8,6.5-3.7,13.6-2.4,20.7c0.6,3.4,1.2,7,3.4,10.4
		c1.3-2.9,2.9-5.3,4.6-7.6c0.5-0.7,1-2,2.1-1.6c0.9,0.3,0.4,1.5,0.4,2.3c0,0.7-0.1,1.3-0.1,2c-1.6,3.9-2,8.1-3.3,12.1
		c-0.4,1.2-0.3,2.6-1.9,2.8c-1.6,0.3-2.3-0.9-3.1-2.1c-2.8-4.3-5-9-6.2-14c-0.1-0.6,0-2.3-1.2-1.7c-2.7,1.4-3.9-0.5-4.8-2.1
		c-2.6-4.6-5.2-9.3-7.2-14.3c-1-2.5-1.4-5.3-3.3-7.4c0.2-1.2-0.5-2.3-0.7-3.4c0.3-2.4,0.3-5.6-1.2-6.8
		C185.2,485.7,184.4,483.8,183,482.4z"/>
	<path class="st16" d="M313.4,514c-3.4,3.4-6.3,7.2-10.2,10c-0.7,0.5-1.4,1-2.2,1.3c-2,0.6-3.6-0.8-3-2.8c2.2-6.4,0.6-12.7,0-19
		c-0.2-2.1-0.5-4.3-0.5-6.5c3.4,3.6,4.8,8.1,6,12.7c0.4,1.6,0.4,3.2,0.6,4.8c0.1,0.5-0.2,1.3,0.4,1.5c0.8,0.4,1.2-0.4,1.6-0.9
		c3.9-4.4,6.9-9.4,8.8-15c2.1-6.2,3.4-12.5,1.9-19c-0.1-0.6-0.5-1.7,0.5-2c0.9-0.3,1.3,0.6,1.8,1.2c3.2,4.3,5.3,9.1,6.4,14.3
		c0.2,0.8,0.4,1.6,0.8,3.4c8.8-11.5,12.8-24.6,18.3-37.3c0.7,1.5,0.4,2.5,0.2,3.6c-0.2,1-0.3,2.1-0.4,3.1c-0.1,0.2-0.3,0.5-0.4,0.7
		c-3.2,12.1-6.5,24.1-15.4,33.5c-0.3,0.3-0.2,0.9-0.3,1.4c-1.1-0.2-1.9,0.3-2.5,1.2c-2,0.7-4,2.7-5.8-0.6c-0.5-1-1.3,0.2-1.5,0.9
		C317.3,507.9,314.8,510.7,313.4,514z"/>
	<path class="st16" d="M243.5,565.5c-1.7-1-1.1-2.7-1.3-4.2c-0.7-4.9-2.1-9.7-3.3-14.5c-0.3-1.2-0.9-2.3-0.2-3.8
		c3.6,2,4.7,6.1,7.3,9.3c2.2-10.5-0.3-20.6,0.1-30.7c3.4,5.1,3.8,11,4.8,16.7c0.9,5.8,0.7,11.8-0.3,17.7
		c6.9-7.3,11.7-16.2,18.5-24.1c0.5,2.5-0.6,4.2-0.9,6c-1.4,3.1-2.8,6.2-4.5,9.2c-3.3,6-7,11.7-12.8,15.6
		C248.8,564.1,246.7,566.3,243.5,565.5z"/>
	<path class="st8" d="M188.9,497.3c1.9,2.1,2.3,4.9,3.3,7.4c2,5,4.6,9.7,7.2,14.3c0.9,1.6,2.1,3.5,4.8,2.1c1.1-0.6,1,1.2,1.2,1.7
		c1.2,5.1,3.4,9.7,6.2,14c0.8,1.2,1.5,2.3,3.1,2.1c1.6-0.3,1.5-1.6,1.9-2.8c1.2-4,1.7-8.2,3.3-12.1c0.3,6.9-0.9,13.7-2.2,20.4
		c-0.2,1.3-0.7,2.3-2,2.4c-1.2,0.1-2-0.6-2.7-1.8c-2.5-4.7-5.5-9.2-6.4-14.7c-0.2-1-0.6-2-1.9-1.8c-2.7,0.5-3.7-1.3-4.9-3.1
		c-4.1-6.7-7.3-13.9-9.6-21.4C189.5,501.8,189.3,499.5,188.9,497.3z"/>
	<path class="st8" d="M243.5,565.5c3.2,0.8,5.3-1.3,7.5-2.8c5.7-3.9,9.5-9.6,12.8-15.6c1.7-3,3.1-6.1,4.5-9.2
		c0.2,3.6-0.8,6.9-2.2,10.2c-2.2,5.3-4.3,10.6-7.8,15.2c-2.6,3.5-5.6,6.5-9.7,8.4c-3.1,1.5-4.9,0.4-5-3.2
		C243.6,567.4,243.5,566.4,243.5,565.5z"/>
	<path class="st8" d="M328.3,503.1c0.1-0.5,0-1.1,0.3-1.4c8.9-9.4,12.2-21.4,15.4-33.5c0.1-0.3,0.3-0.5,0.4-0.7
		c0.4,6.5-2,12.4-3.7,18.4c-1.1,3.6-2.7,7.1-4.1,10.7c-1.2,3.1-2.9,6-5.2,8.4C329.6,506.7,328.9,504.5,328.3,503.1z"/>
	<path class="st8" d="M313.4,514c1.4-3.3,3.9-6.1,5.1-9.5c0.2-0.6,1-1.8,1.5-0.9c1.8,3.3,3.8,1.3,5.8,0.6c0.1,0.2,0.2,0.3,0.2,0.5
		c0.6,1.4,3.2,2.1,1.9,4c-1.4,2-3.4,3.7-6,4.1c-1.7,0.3-2.1-1.7-3.4-2.5c-0.5,1.2-1,2.3-1.6,3.4C315.6,516.5,315.4,516.5,313.4,514z
		"/>
	<path class="st8" d="M183,482.4c1.5,1.4,2.2,3.3,3.9,4.7c1.5,1.2,1.5,4.3,1.2,6.8c-1.6,0.2-2.4-0.9-3-2.2
		C183.8,488.7,182.6,485.8,183,482.4z"/>
	<path class="st7" d="M306.9,532.2c-2.2,0.6-4.5,0.2-6.8,0.7c-1.7,0.3-3-0.9-2.9-2.9c0.1-1.6,1.2-1.9,2.1-0.9
		C301.4,531.3,303.8,532.2,306.9,532.2z"/>
	<path class="st7" d="M492.1,538.9c0.1,0.1,0.2,0.2,0.2,0.3c-0.1,0-0.1,0-0.2,0C492.1,539,492.1,538.9,492.1,538.9L492.1,538.9z"/>
	<path class="st7" d="M492.1,538.9c-0.1-0.1-0.2-0.2-0.2-0.2c0.1,0,0.1,0,0.1,0C492,538.7,492.1,538.8,492.1,538.9
		C492.1,538.9,492.1,538.9,492.1,538.9z"/>
	<path class="st8" d="M107.9,498.5c3,0.1,4.9,2,5.5,4.2c0.6,2.5,2.1,3.3,4,4.3c0.9,0.5,3.1,0.6,2.3,2.2c-0.8,1.8-2.7,1.5-4.2,0.5
		c-1.4-0.9-2.7-1.9-4.4-0.8c-1.6,1.1-2.6,2.2-0.6,4c1,0.9,3.3,1.9,1.6,3.6c-1.8,1.7-2.5-0.4-3.6-1.6c-2.4-2.6-4.9-5.1-7.5-7.4
		c-1-0.9-1.4-1.9-0.7-2.7c1.8-2.2,3.7-4.3,6.2-5.9C106.9,498.5,107.5,498.5,107.9,498.5z M110.4,504.1c-0.6-1.4-1.2-2.6-2.8-2.7
		c-1.1-0.1-3.8,3-3.6,4c0.3,1.5,1.3,2.8,2.9,2.6C109.1,507.9,109.5,505.7,110.4,504.1z"/>
	<path class="st8" d="M124.1,504.8c-0.8,0.9-1.6,1.6-2.7,0.9c-3.8-2.7-6.6-6.4-9.6-9.8c-0.9-1-0.2-2.4,0.7-3.4
		c1.6-1.6,3.3-3.2,4.9-4.8c0.7-0.6,1.3-0.7,2-0.2c1.1,0.8,0.1,1.2-0.2,1.8c-0.8,1.3-2,2.2-3.2,3.2c-1.2,1-1.5,2.2-0.3,3.5
		c1.1,1.1,2.1,0.9,3.1-0.4c0.9-1.1,2.2-1.9,3.2-2.8c0.7-0.7,1.3-0.6,2,0.1c0.7,0.7,0.7,1.3,0,2c-0.1,0.1-0.1,0.1-0.2,0.2
		c-1.5,1.3-3.7,2.5-3.9,4.4c-0.2,1.9,2.3,2.8,3.5,4.3C123.6,504.1,123.8,504.4,124.1,504.8z"/>
	<path class="st16" d="M246,349.7c4.9,3.1,8,7.9,11.6,12.2c2.4,2.9,4.9,5.6,7.6,8.1c0.5,0.4,1.2,0.8,1.1,1.6
		c-0.1,0.9-1.1,0.6-1.7,0.8c-6.4,1.5-12.9,2.7-18.9,5.6c-2.3,1.1-4.9,1.8-7,3.2c-2.6,1.7-4.4,0.5-6.1-1.1c-3.5-3.2-5.4-7.6-8.1-11.4
		c-0.9-1.3-3.1-2.5-2.6-4.2c0.5-1.6,2.9-1.6,4.2-2.7c3.9-3,7.9-6,11.6-9.3c0.9-0.8,1.8-1.5,2.9-2c-1.5,7.2-3,14.3-4.5,21.5
		c0.3,0.1,0.6,0.2,1,0.3C240,364.6,242.6,357,246,349.7z"/>
	<path class="st16" d="M281.9,377.8c-2.1,2.8-4.9,4.9-7.2,7.5c-3.6,4-6.9,8.2-9.6,12.8c-2.1,3.4-4,6.9-6.5,10
		c-0.8,1-1.6,1.2-2.8,0.8c-5.5-1.7-9.7-5.3-13.7-9.1c-1.2-1.2-0.4-1.7,0.8-1.6c1.9,0.1,3.3-1,4.5-2.2c4.4-4.1,9.4-7,14.6-9.9
		C268.2,382.5,274.9,380,281.9,377.8z"/>
	<path class="st15" d="M267.7,377.6c-8.6,4.2-16.4,8.1-22.9,14.2c-1.4,1.3-2.8,1.6-4.3,0.4c-1.8-1.4-3.6-2.8-4.6-4.9
		C246.1,383.8,255.7,377.8,267.7,377.6z"/>
	<path class="st3" d="M246,349.7c-3.4,7.3-6.1,14.9-8.7,22.5c-0.3-0.1-0.6-0.2-1-0.3c1.5-7.2,3-14.3,4.5-21.5
		C242.3,349,244,347.9,246,349.7z"/>
	<path class="st3" d="M333.2,302.5c13.2,0,22.3,6.7,28.1,18.1c1.8,3.6,0.5,8.1-0.2,12.1c-0.8,4.6-3.2,8.7-5.5,12.7
		c-1.3,2.2-4,3-6.2,3.9c-7.2,3-14.7,5.1-22.6,5c-5.4-0.1-10.6-1.2-16-1.9c-5.3-0.8-7-4.3-7.7-8.6c-2-11.3-0.8-22.2,5.9-32
		c2.4-3.5,5.8-5.5,10-7C323.7,303.1,328.3,302.3,333.2,302.5z M320.4,319.6c-1.8,5.2-1.6,10.1,0.7,15.9c4.2,10.6,17.4,16.6,27.7,7.9
		c6.8-5.7,8.7-13.4,7-21.8c-1.5-7.5-5.7-13-13.3-15.6c-6-2-13.8,0.2-16.5,4.8c4.9,0.4,7.4,2.2,8,5.8c0.5,3-1.4,6.2-4.4,7.3
		C326.1,325.3,323.3,324,320.4,319.6z"/>
	<path class="st3" d="M222,315.1c0.7,5.2-0.8,10.6-2.4,16c-1.8,5.7-5.4,7.9-12.2,6.7c-4.3-0.7-8.8-1.2-13-3c-7.9-3.3-15-7.4-21.5-13
		c-2.8-2.4-4-4.9-4.2-8.5c-0.2-4.7-0.1-9.4,0.7-14.1c1.4-8.5,6.6-13.5,15-14.8c11.4-1.9,21.8,0.5,30.5,8.4
		c4.9,4.4,6.7,10.3,7.1,16.7C222.1,311.2,222,312.8,222,315.1z M187.5,305.7c-1.9,5.7-1.3,11.1,1.2,16.3
		c4.9,10.4,17.1,13.4,25.7,6.2c8.9-7.4,9.3-23.3,0.8-31.1c-6.5-6-15-6.3-21.2-0.8c4.7,1.6,6.4,3.4,6.4,6.8c0,3-1.6,4.9-4.1,6
		C193.3,310.5,190.6,309.4,187.5,305.7z"/>
	<polygon class="st7" points="342.9,253.1 343.1,253 343,253.2 	"/>
	<path class="st8" d="M110.4,504.1c-0.9,1.6-1.3,3.8-3.5,4c-1.6,0.2-2.6-1.1-2.9-2.6c-0.2-1.1,2.5-4.1,3.6-4
		C109.2,501.6,109.8,502.8,110.4,504.1z"/>
	<path class="st15" d="M320.4,319.6c2.8,4.4,5.7,5.7,9.2,4.4c3-1.1,4.9-4.3,4.4-7.3c-0.6-3.6-3.1-5.5-8-5.8
		c2.8-4.6,10.5-6.9,16.5-4.8c7.5,2.5,11.8,8,13.3,15.6c1.7,8.4-0.2,16.1-7,21.8c-10.4,8.7-23.5,2.7-27.7-7.9
		C318.8,329.8,318.6,324.8,320.4,319.6z M343.5,341.7c1.3-0.1,2.3-1.1,2.2-2.9c0-1.8-1.1-2.9-2.9-2.9c-1.9,0-3,1.2-2.9,3.1
		C340,340.8,341,341.8,343.5,341.7z"/>
	<path class="st15" d="M187.5,305.7c3.1,3.7,5.8,4.8,8.7,3.5c2.5-1.1,4.1-3.1,4.1-6c0-3.4-1.7-5.2-6.4-6.8
		c6.2-5.5,14.7-5.2,21.2,0.8c8.5,7.8,8.1,23.7-0.8,31.1c-8.6,7.1-20.8,4.2-25.7-6.2C186.2,316.8,185.7,311.4,187.5,305.7z
		 M206.8,321.4c-1.9,0.2-2.9,1.3-2.8,3c0.1,1.6,1.1,2.7,2.8,2.7c1.7,0,2.8-1.1,2.8-2.9C209.6,322.4,208.5,321.5,206.8,321.4z"/>
	<path class="st3" d="M343.5,341.7c-2.4,0.1-3.5-0.9-3.6-2.7c-0.1-1.9,1-3.1,2.9-3.1c1.8,0,2.8,1.1,2.9,2.9
		C345.7,340.6,344.8,341.6,343.5,341.7z"/>
	<path class="st3" d="M206.8,321.4c1.7,0.1,2.8,1,2.8,2.8c0,1.8-1.1,2.9-2.8,2.9c-1.6,0-2.7-1.1-2.8-2.7
		C203.9,322.7,204.9,321.6,206.8,321.4z"/>
	<path class="st1" d="M271,765.1l2.9-3.3c0,0-2.7-0.9-4.1-0.7c-1.4,0.2-3.2,1.9-3.2,2c0,0.1,3.9,2.5,3.9,2.5h1l-0.4-0.6L271,765.1z"
		/>
	<path class="st1" d="M281.7,767.2c0,0,6,1.5,9.3,0.2c3.3-1.3,1.8-5,1.8-5s-17.9-2.2-22.2-1.4s-2.3,3.6-2.3,3.6L281.7,767.2z"/>
	<path class="st1" d="M495.7,720.7c0,0,5.1,5.6,10.8,8.6s13,5.2,16.1,5.7c3.2,0.5,5.3,1.3,11-0.9c5.7-2.2,12.7-5.5,12.7-5.5
		s5.6-1.7,9-0.4s-0.8,3.4-1.1,3.5c-0.3,0.2-2.8,0.9-2.8,0.9s-18.4,7.3-21.6,7.4c-3.2,0.1-22.6-4.1-27.4-7.5s-10.3-8.3-11.8-10.2
		C489.2,720.4,495.7,720.7,495.7,720.7z"/>
	<path class="st8" d="M336.2,285.7c-0.4,0-11.7-1.2-18.8,5.3s-10.2,8.9-12.8,12.6c-2.5,3.7-2.5,7.1-2.5,7.1l32-18.2L336.2,285.7z"/>
	<path class="st16" d="M362.9,343.3c2.9,1,6,1.7,8.5,3.8c0.7,0.6,1.9,1.1,1.5,2.1c-0.3,0.9-1.5,0.4-2.4,0.4c-1.1,0-2.3-0.2-3.4-0.3
		c-3.8-0.2-7.3-0.4-11,1.8c-13.4,8.2-28.1,9.3-43.3,6.4c-5.6-1.1-11-2.4-15.9-5.6c-0.6-0.4-1.1-0.7-1.7-1.1c-0.5-0.4-1.1-1-0.7-1.7
		c0.3-0.6,1-0.6,1.5-0.5c3.2,0.6,3.3-0.8,2.6-3.4c-2.7-10.8-0.8-21.1,3.4-31.1c0.3-0.8,0.8-1.5,0.7-2.4c2.1-3.1,4.2-6.1,6.4-9.2
		c2.5-2,4.8-4.3,7.6-5.9c1.2-0.2,2-1.3,3.4-1.1c1,0.2,1.2-0.7,1.2-1.5c1.2-0.2,2.5-0.5,3.4-1.4c1.6-0.2,3.2-0.2,4.6-1
		c1.5,0.1,2.9,0.5,4.2-0.6c2.5,0.2,5,0.5,7.6,0.9c8.6,1.5,15,6,20.1,12.7c1.9,2.4,4.1,3.7,7.2,3c3.1,0.1,5.6-1.7,8.1-3.2
		c1.2-0.7,2.3-1.3,3.4-0.4c1.1,0.8,1.2,1.9,0.9,3.3c-1.2,6.4-4.4,11.5-9.6,15.3c-1.6,0.9-4.3,0.3-4.5,3.2
		c-0.3,5.5-1.9,10.7-3.4,15.9c0,0-0.1,0.1-0.1,0.1C362.8,342.1,362.9,342.7,362.9,343.3z M333.2,302.5c-4.9-0.2-9.5,0.6-14.2,2.3
		c-4.1,1.5-7.6,3.5-10,7c-6.6,9.7-7.9,20.6-5.9,32c0.7,4.2,2.4,7.8,7.7,8.6c5.3,0.8,10.6,1.9,16,1.9c7.9,0.1,15.4-2,22.6-5
		c2.2-0.9,4.9-1.7,6.2-3.9c2.3-4,4.7-8,5.5-12.7c0.7-4,2-8.6,0.2-12.1C355.6,309.2,346.5,302.4,333.2,302.5z"/>
	<path class="st8" d="M493.4,541.3c0,0,0.3,2.9,0.3,3.2c0,0.3-2.4,7.5-3.6,9.3c-1.2,1.8-5.3-1.4-5.3-1.6c0-0.2,0.6-4.8,0.8-5.1
		c0.1-0.3,1.3-2.7,2-3c0.6-0.3,3.3-6,3.3-6l1.9-0.7c0,0,0.3,0,0.4,0.7C493.1,538.8,493.4,541.3,493.4,541.3z"/>
	<path class="st1" d="M301.2,70.8l1.1-0.1l22.8-3.6c0,0,15.4,8.1,15.4,8.9s5,9.3,4.4,14.1s-2.9,9.5-3.3,9.9s-17.1,10.4-17.1,10.4
		l-17.3,12l-10.3,9.5c0,0-7.8-1.3-11.3-4.8s-8.3-14.8-8.8-16.9s-2.9-15.9-2.6-16.8s3.5-4.4,3.5-4.4l6.4,2.9c0,0,1.5-5.8,1.9-6.3
		s4.9-10.5,4.9-10.5L301.2,70.8z"/>
	<path class="st1" d="M298.3,740.9c0,0,2.1,2.1,2.9,3.8c0.8,1.7,1.7,4.1,1.9,6.4s-2.1,0-2.1,0s-3.8-4.8-3.8-5.3
		c0-0.5-0.4-3.3-0.4-3.6s0-1.1,0-1.1L298.3,740.9z"/>
	<path class="st1" d="M510.5,746.6c0,0,10.7,4.5,15.5,3.8s7.9-2.1,10.9-1.9c2.9,0.2,2.5,2.6,2.5,2.6l-7,2.5l-2.3,0.9
		c0,0-8.3,1-15.1-2.3s-7.3-4.9-7.3-4.9l2.6-0.8H510.5z"/>
</g>
</svg>
